<svg xmlns="http://www.w3.org/2000/svg" xmlns:xlink="http://www.w3.org/1999/xlink" width="2000" zoomAndPan="magnify" viewBox="0 0 1500 1499.999933" height="2000" preserveAspectRatio="xMidYMid meet" version="1.0"><defs><clipPath id="6d495ccdf5"><path d="M 2 306 L 1499 306 L 1499 1150.882812 L 2 1150.882812 Z M 2 306 " clip-rule="nonzero"/></clipPath></defs><g clip-path="url(#6d495ccdf5)"><path fill="#fffdf4" d="M 1428.917969 843.878906 C 1432.886719 847.039062 1436.800781 849.652344 1440.164062 852.816406 C 1445.789062 858.035156 1451.261719 863.457031 1456.480469 869.132812 C 1462.253906 875.355469 1467.726562 881.832031 1473.25 888.257812 C 1474.90625 890.21875 1476.3125 892.828125 1475.109375 895.1875 C 1473.953125 897.445312 1471.34375 898.351562 1468.582031 898.25 C 1467.980469 898.199219 1467.375 898.199219 1466.773438 898.25 C 1464.867188 898.5 1462.304688 897.246094 1461.453125 899.65625 C 1461.152344 900.507812 1463.160156 902.164062 1464.164062 903.421875 C 1469.132812 909.644531 1474.203125 915.820312 1479.175781 922.097656 C 1480.980469 924.355469 1481.132812 926.96875 1479.074219 929.027344 C 1476.261719 931.886719 1475.761719 935.300781 1475.257812 939.015625 C 1474.503906 945.039062 1473 951.015625 1471.792969 956.988281 C 1471.695312 957.390625 1471.746094 957.792969 1471.695312 958.144531 C 1471.292969 964.269531 1470.589844 970.34375 1470.539062 976.46875 C 1470.390625 999.109375 1470.539062 1021.804688 1470.4375 1044.445312 C 1470.4375 1046.90625 1471.492188 1049.566406 1469.386719 1051.925781 C 1468.933594 1052.429688 1469.835938 1054.488281 1470.539062 1055.542969 C 1476.113281 1063.925781 1478.472656 1073.714844 1483.039062 1082.550781 C 1486.40625 1089.027344 1489.667969 1095.605469 1492.929688 1102.132812 C 1494.386719 1104.992188 1495.59375 1107.957031 1497.25 1110.667969 C 1499.207031 1113.828125 1498.304688 1117.242188 1498.304688 1120.507812 C 1498.304688 1122.464844 1493.933594 1124.421875 1491.625 1123.921875 C 1489.769531 1123.519531 1487.910156 1123.015625 1486.003906 1122.816406 C 1479.625 1122.113281 1473.199219 1122.164062 1466.976562 1120.40625 C 1466.222656 1120.207031 1465.367188 1120.355469 1464.566406 1120.355469 C 1457.886719 1120.457031 1451.410156 1119.300781 1444.933594 1117.996094 C 1440.316406 1117.09375 1435.546875 1117.242188 1430.878906 1116.640625 C 1426.511719 1116.089844 1422.191406 1115.132812 1417.824219 1114.480469 C 1414.007812 1113.929688 1410.144531 1113.527344 1406.277344 1113.027344 C 1396.636719 1111.820312 1387 1110.96875 1377.460938 1109.261719 C 1368.675781 1107.703125 1359.886719 1106.601562 1351.050781 1105.597656 C 1343.519531 1104.742188 1335.941406 1103.890625 1328.410156 1103.136719 C 1318.820312 1102.183594 1309.230469 1101.480469 1299.691406 1100.625 C 1293.96875 1100.125 1288.144531 1100.574219 1282.621094 1099.472656 C 1275.042969 1097.964844 1267.460938 1099.320312 1260.03125 1098.367188 C 1242.410156 1096.058594 1224.738281 1097.664062 1207.113281 1097.3125 C 1189.292969 1097.011719 1171.46875 1096.410156 1153.695312 1097.5625 C 1142.101562 1098.316406 1130.453125 1097.261719 1119.003906 1098.71875 C 1108.011719 1100.125 1096.964844 1098.515625 1086.121094 1099.871094 C 1075.125 1101.277344 1064.082031 1099.820312 1053.238281 1101.175781 C 1045.65625 1102.132812 1038.074219 1101.128906 1030.644531 1102.332031 C 1023.464844 1103.488281 1016.234375 1102.382812 1009.308594 1103.585938 C 1002.128906 1104.84375 994.949219 1103.585938 987.972656 1104.742188 C 981.644531 1105.796875 975.320312 1105.195312 969.042969 1105.898438 C 959.054688 1107 949.113281 1107.957031 939.070312 1108.304688 C 930.6875 1108.609375 922.304688 1109.511719 913.96875 1110.714844 C 906.035156 1111.871094 898.054688 1112.523438 890.070312 1113.226562 C 881.488281 1113.929688 872.902344 1114.734375 864.367188 1115.738281 C 854.277344 1116.890625 844.082031 1117.695312 834.144531 1120.304688 C 825.207031 1122.714844 816.371094 1125.324219 808.738281 1130.75 C 800.605469 1136.523438 791.167969 1139.234375 781.878906 1142.09375 C 771.738281 1145.207031 761.195312 1145.15625 750.753906 1144.453125 C 743.324219 1143.953125 735.992188 1141.792969 728.5625 1141.039062 C 720.328125 1140.238281 712.699219 1137.574219 704.917969 1135.066406 C 697.835938 1132.804688 691.460938 1129.242188 685.1875 1125.628906 C 681.722656 1123.667969 678.257812 1122.214844 674.691406 1121.710938 C 665.355469 1120.40625 656.21875 1118.398438 646.980469 1116.792969 C 639.5 1115.484375 631.867188 1115.285156 624.335938 1114.179688 C 615 1112.824219 605.5625 1112.625 596.222656 1111.519531 C 588.441406 1110.617188 580.710938 1111.269531 573.027344 1110.566406 C 548.527344 1108.355469 523.929688 1108.65625 499.476562 1109.710938 C 475.328125 1110.714844 451.179688 1109.511719 427.132812 1110.867188 C 418.195312 1111.367188 409.160156 1110.714844 400.324219 1112.023438 C 392.542969 1113.175781 384.761719 1112.023438 377.128906 1113.226562 C 369.75 1114.382812 362.367188 1113.277344 355.1875 1114.429688 C 348.210938 1115.585938 341.230469 1114.480469 334.453125 1115.636719 C 327.878906 1116.742188 321.300781 1115.738281 314.925781 1116.839844 C 308.75 1117.894531 302.574219 1116.941406 296.601562 1118.046875 C 290.828125 1119.101562 285.101562 1118.398438 279.480469 1119.152344 C 270.140625 1120.457031 260.703125 1120.707031 251.316406 1121.511719 C 243.535156 1122.164062 235.800781 1123.066406 228.019531 1123.921875 C 221.042969 1124.671875 214.0625 1125.324219 207.183594 1126.378906 C 200.054688 1127.535156 192.925781 1128.289062 185.75 1128.890625 C 177.515625 1129.542969 169.382812 1131.351562 161.148438 1132.355469 C 155.472656 1133.058594 149.652344 1132.65625 144.078125 1133.761719 C 138.757812 1134.816406 133.335938 1134.210938 128.011719 1135.871094 C 123.996094 1137.125 119.476562 1136.875 115.210938 1137.226562 C 110.140625 1137.675781 104.917969 1137.476562 99.949219 1138.582031 C 93.171875 1140.035156 86.191406 1139.835938 79.515625 1141.996094 C 76.25 1143.046875 72.585938 1142.796875 69.121094 1143.351562 C 61.542969 1144.503906 53.960938 1145.859375 46.328125 1146.964844 C 42.261719 1147.566406 38.144531 1147.667969 34.078125 1148.269531 C 29.710938 1148.921875 25.445312 1150.175781 21.125 1150.578125 C 16.507812 1150.980469 11.789062 1151.082031 7.167969 1150.527344 C 2.449219 1149.976562 1.042969 1145.609375 3.503906 1140.589844 C 5.160156 1137.226562 6.867188 1133.910156 8.625 1130.597656 C 13.847656 1120.808594 18.96875 1110.96875 24.390625 1101.328125 C 28.558594 1093.949219 32.523438 1086.46875 34.332031 1078.132812 C 34.882812 1075.472656 35.835938 1072.460938 35.082031 1070.050781 C 33.328125 1064.527344 34.730469 1058.957031 33.980469 1053.535156 C 32.472656 1041.984375 33.878906 1030.289062 32.574219 1018.84375 C 31.015625 1005.1875 32.273438 991.628906 31.570312 978.023438 C 31.21875 971.296875 31.667969 964.621094 30.664062 957.84375 C 29.710938 951.515625 31.117188 944.839844 31.667969 938.363281 C 31.769531 937.359375 32.925781 936.503906 33.628906 935.550781 C 38.898438 928.222656 44.21875 920.941406 49.441406 913.5625 C 49.742188 913.160156 49.390625 911.65625 49.191406 911.605469 C 47.082031 911.304688 45.828125 910.199219 46.179688 908.039062 C 46.480469 905.980469 46.628906 903.621094 47.785156 902.066406 C 52.402344 895.839844 57.476562 889.867188 62.292969 883.742188 C 69.121094 875.054688 75.398438 865.867188 82.675781 857.632812 C 90.207031 849.148438 95.53125 839.007812 103.8125 831.226562 C 104.867188 830.222656 104.867188 829.21875 103.011719 828.867188 C 98.894531 828.113281 94.777344 827.210938 90.660156 826.457031 C 86.945312 825.804688 83.230469 825.203125 79.867188 823.195312 C 75.851562 820.734375 75.449219 818.574219 78.609375 815.210938 C 84.484375 808.933594 90.15625 802.507812 96.28125 796.433594 C 104.214844 788.550781 112.648438 781.070312 120.582031 773.191406 C 127.660156 766.109375 134.238281 758.578125 141.265625 751.449219 C 146.4375 746.230469 152.0625 741.410156 157.433594 736.339844 C 158.1875 735.636719 158.488281 734.429688 158.988281 733.425781 C 158.035156 733.277344 157.132812 733.027344 156.175781 732.925781 C 147.191406 732.121094 138.203125 731.671875 129.269531 730.414062 C 117.320312 728.757812 105.371094 726.699219 93.523438 724.339844 C 87.398438 723.136719 81.320312 722.28125 75.097656 721.878906 C 72.234375 721.679688 69.023438 720.472656 66.8125 718.71875 C 64.203125 716.660156 65.105469 712.945312 65.960938 710.332031 C 68.320312 703.054688 71.28125 695.976562 74.144531 688.84375 C 78.210938 678.652344 83.53125 669.113281 89.957031 660.179688 C 93.21875 655.609375 96.585938 651.089844 100.25 646.824219 C 107.128906 638.890625 114.15625 631.109375 121.234375 623.328125 C 127.160156 616.851562 133.234375 610.476562 139.257812 604.101562 C 147.390625 595.515625 155.425781 586.878906 163.757812 578.445312 C 196.492188 545.210938 229.226562 512.023438 262.058594 478.9375 C 270.09375 470.855469 278.277344 462.824219 286.910156 455.394531 C 297.050781 446.605469 307.746094 438.425781 318.238281 429.988281 C 328.078125 422.105469 337.820312 414.023438 347.960938 406.445312 C 356.042969 400.417969 364.726562 395.097656 373.011719 389.324219 C 379.992188 384.453125 386.769531 385.609375 393.796875 389.023438 C 402.882812 393.441406 412.070312 397.605469 421.207031 401.925781 C 431.199219 406.644531 441.339844 411.0625 451.082031 416.285156 C 454.292969 418.039062 454.847656 416.835938 456.203125 414.675781 C 463.53125 402.929688 470.960938 391.230469 478.441406 379.582031 C 485.472656 368.640625 491.195312 356.992188 496.617188 345.242188 C 500.882812 336.007812 505.453125 326.917969 506.40625 316.527344 C 506.605469 314.367188 507.660156 312.210938 508.515625 310.152344 C 510.171875 306.335938 513.636719 305.53125 516.75 308.242188 C 523.023438 313.613281 529.449219 318.886719 535.476562 324.609375 C 543.207031 331.941406 551.140625 339.269531 558.066406 347.351562 C 568.109375 359 577.296875 371.300781 586.933594 383.300781 C 592.707031 390.476562 598.933594 397.257812 604.457031 404.585938 C 612.640625 415.582031 621.125 426.273438 629.207031 437.371094 C 638.242188 449.769531 647.128906 462.269531 655.566406 475.074219 C 661.839844 484.5625 667.765625 494.25 673.589844 503.992188 C 680.566406 515.640625 687.644531 527.234375 694.121094 539.183594 C 700.296875 550.53125 705.769531 562.277344 711.441406 573.875 C 720.226562 591.898438 727.507812 610.476562 734.839844 629.152344 C 741.265625 645.570312 746.234375 662.4375 752.511719 678.90625 C 754.519531 684.175781 755.070312 689.949219 756.476562 695.472656 C 756.777344 696.726562 757.632812 697.832031 758.234375 698.988281 C 758.835938 698.03125 759.539062 697.128906 760.089844 696.175781 C 761.496094 693.515625 762.703125 690.753906 764.308594 688.191406 C 770.535156 678.203125 776.558594 668.0625 783.234375 658.421875 C 790.265625 648.28125 797.996094 638.589844 805.476562 628.75 C 813.207031 618.507812 821.640625 608.820312 830.78125 599.78125 C 843.882812 586.828125 856.683594 573.625 869.890625 560.773438 C 880.632812 550.378906 891.679688 540.289062 902.773438 530.296875 C 911.410156 522.515625 920.144531 514.886719 929.179688 507.554688 C 939.273438 499.421875 949.765625 491.792969 960.007812 483.859375 C 975.269531 472.113281 992.085938 462.773438 1008.203125 452.332031 C 1029.792969 438.375 1052.984375 427.578125 1075.828125 416.132812 C 1087.023438 410.511719 1098.570312 405.640625 1109.917969 400.269531 C 1114.6875 398.007812 1119.304688 395.449219 1123.824219 392.789062 C 1125.933594 391.53125 1127.488281 391.785156 1129.699219 392.789062 C 1136.726562 395.949219 1143.003906 400.015625 1149.027344 404.835938 C 1158.96875 412.820312 1169.261719 420.402344 1179.453125 428.082031 C 1185.777344 432.851562 1192.203125 437.417969 1198.429688 442.289062 C 1206.5625 448.617188 1214.644531 455.09375 1222.578125 461.617188 C 1226.542969 464.882812 1230.308594 468.394531 1234.125 471.910156 C 1240.851562 478.1875 1247.578125 484.460938 1254.207031 490.789062 C 1264.246094 500.328125 1274.339844 509.816406 1284.128906 519.605469 C 1290.503906 525.929688 1296.628906 532.558594 1302.605469 539.285156 C 1309.785156 547.367188 1316.761719 555.601562 1323.640625 563.9375 C 1332.175781 574.328125 1340.710938 584.722656 1348.941406 595.3125 C 1361.34375 611.179688 1374.546875 626.441406 1385.945312 643.109375 C 1394.378906 655.460938 1403.566406 667.257812 1411.5 679.910156 C 1417.472656 689.398438 1422.042969 699.789062 1427.0625 709.832031 C 1428.871094 713.445312 1425.003906 719.269531 1420.734375 719.621094 C 1414.863281 720.125 1408.886719 720.171875 1403.0625 720.925781 C 1396.035156 721.832031 1389.105469 723.335938 1382.078125 724.492188 C 1378.613281 725.042969 1375.101562 725.242188 1371.6875 725.746094 C 1365.460938 726.648438 1359.285156 728.207031 1353.109375 729.007812 C 1347.335938 729.761719 1341.613281 730.667969 1335.941406 731.820312 C 1327.203125 733.578125 1318.46875 735.535156 1309.785156 737.542969 C 1300.746094 739.601562 1291.710938 741.710938 1282.722656 743.96875 C 1271.726562 746.730469 1260.683594 749.292969 1249.890625 752.65625 C 1235.78125 757.074219 1221.824219 761.992188 1207.917969 767.066406 C 1196.671875 771.179688 1185.675781 775.851562 1174.632812 780.46875 C 1139.339844 795.179688 1105.300781 812.601562 1071.410156 830.222656 C 1056.699219 837.851562 1042.390625 846.238281 1027.933594 854.269531 C 1019.199219 859.140625 1010.410156 863.859375 1001.878906 869.03125 C 991.183594 875.507812 980.390625 881.933594 970.148438 889.113281 C 958.300781 897.394531 946.902344 906.382812 935.40625 915.21875 C 925.867188 922.550781 916.378906 929.980469 907.039062 937.558594 C 900.914062 942.53125 895.191406 947.902344 889.117188 952.921875 C 883.59375 957.492188 877.820312 961.757812 872.199219 966.277344 C 868.984375 968.886719 865.871094 971.648438 862.808594 974.410156 C 856.785156 979.933594 850.8125 985.554688 844.835938 991.128906 C 832.4375 1002.726562 819.835938 1014.121094 807.683594 1025.972656 C 798.796875 1034.65625 790.464844 1043.894531 781.878906 1052.878906 C 781.476562 1053.28125 781.378906 1053.984375 781.125 1054.585938 C 781.828125 1054.386719 782.582031 1054.285156 783.183594 1053.933594 C 791.417969 1048.914062 800.355469 1045.097656 807.988281 1038.972656 C 815.816406 1032.699219 824 1026.925781 832.035156 1020.898438 C 840.367188 1014.625 848.652344 1008.300781 856.984375 1002.023438 C 863.460938 997.152344 869.9375 992.234375 876.464844 987.464844 C 883.746094 982.09375 891.023438 976.71875 898.40625 971.597656 C 911.105469 962.761719 923.859375 954.027344 936.761719 945.441406 C 942.082031 941.878906 947.855469 939.015625 953.378906 935.753906 C 958.75 932.589844 963.722656 928.421875 969.496094 926.3125 C 977.328125 923.453125 984.40625 919.335938 991.835938 915.722656 C 1009.859375 906.933594 1028.234375 899.101562 1046.960938 891.925781 C 1067.59375 884.042969 1088.328125 876.460938 1109.464844 869.882812 C 1124.378906 865.265625 1139.238281 860.445312 1154.398438 856.679688 C 1163.9375 854.320312 1173.328125 851.460938 1182.964844 849.5 C 1189.644531 848.144531 1196.171875 846.085938 1202.847656 844.730469 C 1212.035156 842.875 1221.324219 841.417969 1230.558594 839.8125 C 1239.796875 838.203125 1249.035156 836.347656 1258.324219 835.042969 C 1266.257812 833.886719 1274.238281 833.484375 1282.171875 832.480469 C 1290.40625 831.425781 1298.539062 829.972656 1306.769531 828.917969 C 1312.242188 828.265625 1317.816406 828.515625 1323.238281 827.511719 C 1329.164062 826.457031 1335.335938 827.460938 1341.109375 825.253906 C 1342.015625 824.902344 1343.121094 825.253906 1344.125 825.203125 C 1351.050781 824.800781 1357.980469 824.449219 1364.859375 823.996094 C 1368.722656 823.746094 1372.640625 823.195312 1376.503906 822.792969 C 1380.371094 822.390625 1384.289062 821.988281 1388.152344 821.585938 C 1388.554688 821.535156 1389.15625 821.738281 1389.359375 821.535156 C 1392.871094 817.371094 1397.542969 819.480469 1401.757812 819.226562 C 1406.777344 818.925781 1411.898438 819.328125 1416.921875 819.128906 C 1424.453125 818.875 1431.980469 818.375 1439.460938 817.921875 C 1440.015625 817.871094 1440.515625 817.621094 1441.070312 817.421875 C 1440.867188 816.71875 1440.867188 815.8125 1440.417969 815.363281 C 1431.027344 806.324219 1421.691406 797.1875 1412.152344 788.351562 C 1407.28125 783.832031 1402.058594 779.617188 1396.839844 775.449219 C 1390.160156 770.175781 1383.382812 765.007812 1376.554688 759.984375 C 1369.628906 754.863281 1362.546875 749.894531 1355.46875 744.976562 C 1351.90625 742.464844 1348.140625 740.15625 1344.574219 737.644531 C 1342.96875 736.539062 1341.8125 734.734375 1343.421875 733.175781 C 1344.476562 732.121094 1346.785156 731.46875 1348.191406 731.871094 C 1350.851562 732.625 1353.460938 733.980469 1355.722656 735.535156 C 1368.019531 744.019531 1380.320312 752.503906 1392.421875 761.292969 C 1402.410156 768.519531 1412.050781 776.203125 1420.9375 784.835938 C 1428.820312 792.519531 1436.953125 799.949219 1444.835938 807.628906 C 1446.941406 809.636719 1448.75 812.046875 1450.40625 814.40625 C 1452.113281 816.867188 1450.609375 820.984375 1448.148438 822.792969 C 1445.085938 825.050781 1441.46875 825.753906 1438.054688 826.207031 C 1431.027344 827.160156 1423.847656 827.210938 1416.71875 827.5625 C 1415.3125 827.660156 1413.859375 827.460938 1412.550781 827.761719 C 1411.5 828.011719 1410.644531 828.816406 1409.691406 829.417969 C 1410.445312 830.023438 1411.195312 830.625 1412 831.226562 C 1417.625 835.492188 1423.144531 839.511719 1428.917969 843.878906 M 1265.953125 739.152344 C 1266.558594 739.152344 1267.160156 739.300781 1267.761719 739.152344 C 1277.101562 736.742188 1286.339844 734.179688 1295.726562 731.921875 C 1303.660156 730.011719 1311.691406 728.40625 1319.675781 726.75 C 1327.507812 725.144531 1335.386719 723.636719 1343.269531 722.179688 C 1348.742188 721.175781 1354.265625 720.375 1359.738281 719.421875 C 1365.960938 718.367188 1372.136719 717.011719 1378.363281 716.15625 C 1383.433594 715.453125 1388.605469 715.65625 1393.625 714.800781 C 1400.753906 713.546875 1407.832031 712.441406 1415.113281 712.441406 C 1418.980469 712.441406 1419.230469 712.140625 1417.324219 708.476562 C 1412.703125 699.640625 1408.234375 690.753906 1403.113281 682.21875 C 1398.394531 674.386719 1393.074219 666.90625 1387.703125 659.476562 C 1381.476562 650.839844 1375 642.457031 1368.523438 634.023438 C 1361.695312 625.085938 1354.816406 616.199219 1347.789062 607.414062 C 1343.519531 602.042969 1338.851562 596.972656 1334.585938 591.648438 C 1328.460938 584.117188 1322.585938 576.386719 1316.460938 568.804688 C 1313.5 565.140625 1310.136719 561.726562 1307.074219 558.113281 C 1300.042969 549.929688 1293.46875 541.242188 1285.9375 533.5625 C 1272.429688 519.753906 1258.425781 506.453125 1244.417969 493.148438 C 1236.835938 485.917969 1228.902344 478.988281 1220.972656 472.113281 C 1213.289062 465.433594 1205.558594 458.707031 1197.574219 452.378906 C 1190.195312 446.558594 1182.363281 441.234375 1174.832031 435.5625 C 1167.855469 430.339844 1160.976562 425.019531 1154.097656 419.699219 C 1147.019531 414.277344 1140.089844 408.703125 1132.863281 403.480469 C 1130.25 401.574219 1127.390625 400.972656 1123.773438 402.777344 C 1106.453125 411.261719 1088.78125 418.996094 1071.511719 427.53125 C 1057.707031 434.308594 1044.148438 441.636719 1030.695312 449.117188 C 1019.296875 455.445312 1007.902344 461.871094 997.160156 469.199219 C 979.835938 480.949219 961.8125 491.691406 946 505.496094 C 937.765625 512.675781 928.980469 519.152344 920.644531 526.183594 C 913.367188 532.308594 906.289062 538.632812 899.308594 545.058594 C 887.261719 556.152344 875.210938 567.199219 863.464844 578.597656 C 856.132812 585.675781 849.65625 593.65625 842.328125 600.734375 C 829.023438 613.539062 816.972656 627.394531 805.929688 642.15625 C 800.757812 649.082031 795.585938 656.011719 790.765625 663.191406 C 783.488281 673.882812 776.257812 684.628906 769.53125 695.671875 C 764.808594 703.40625 760.84375 711.636719 760.390625 720.976562 C 760.089844 728.304688 759.589844 735.636719 759.386719 742.917969 C 758.183594 778.5625 760.492188 814.207031 758.03125 849.851562 C 757.53125 857.332031 758.03125 864.863281 758.9375 872.445312 C 760.242188 883.289062 758.535156 894.332031 760.191406 905.328125 C 761.445312 913.511719 760.089844 921.945312 761.347656 930.332031 C 762.652344 938.914062 762.25 947.800781 762.5 956.488281 C 763.355469 986.863281 762.351562 1017.285156 764.007812 1047.609375 C 764.058594 1048.8125 763.757812 1050.121094 764.058594 1051.222656 C 764.558594 1052.929688 765.511719 1054.488281 766.265625 1056.09375 C 767.621094 1055.441406 769.226562 1055.039062 770.230469 1054.035156 C 776.355469 1047.710938 782.28125 1041.234375 788.304688 1034.855469 C 794.730469 1028.03125 801.109375 1021.101562 807.636719 1014.375 C 810.496094 1011.410156 813.910156 1008.953125 816.972656 1006.191406 C 823.148438 1000.515625 829.375 994.894531 835.347656 989.019531 C 845.789062 978.726562 856.734375 969.039062 868.183594 959.800781 C 876.414062 953.125 884.296875 946.042969 892.480469 939.265625 C 900.867188 932.289062 909.449219 925.511719 917.933594 918.632812 C 924.613281 913.210938 930.988281 907.386719 937.964844 902.417969 C 953.53125 891.320312 968.339844 879.121094 985.058594 869.683594 C 997.410156 862.703125 1009.15625 854.773438 1021.609375 847.996094 C 1032 842.320312 1042.089844 836.195312 1052.785156 831.027344 C 1063.929688 825.601562 1074.472656 818.925781 1085.570312 813.453125 C 1107.40625 802.660156 1129.398438 792.316406 1151.335938 781.824219 C 1156.40625 779.414062 1161.328125 776.652344 1166.550781 774.59375 C 1177.492188 770.226562 1188.738281 766.5625 1199.585938 761.992188 C 1215.800781 755.117188 1232.570312 749.695312 1249.285156 744.222656 C 1254.308594 742.3125 1259.527344 740.757812 1265.953125 739.152344 M 658.878906 1107.050781 C 661.289062 1107.050781 664.402344 1108.003906 666.007812 1106.851562 C 669.320312 1104.492188 671.078125 1106.851562 673.1875 1108.105469 C 677.90625 1110.816406 681.871094 1114.882812 687.445312 1116.238281 C 688.5 1116.492188 689.601562 1117.191406 690.355469 1117.945312 C 695.527344 1123.066406 702.253906 1125.175781 708.78125 1127.6875 C 721.734375 1132.605469 735.390625 1134.515625 748.996094 1135.96875 C 757.582031 1136.875 766.515625 1137.324219 775.152344 1134.964844 C 777.664062 1134.261719 780.121094 1133.058594 782.683594 1132.605469 C 791.972656 1130.949219 800.054688 1126.429688 807.886719 1121.710938 C 813.660156 1118.246094 818.628906 1113.429688 824.101562 1109.460938 C 826.664062 1107.605469 829.425781 1105.996094 832.886719 1105.746094 C 839.265625 1105.292969 845.589844 1104.238281 851.914062 1103.4375 C 854.976562 1103.035156 858.089844 1102.785156 861.101562 1102.183594 C 867.078125 1101.078125 873 1099.621094 879.027344 1098.617188 C 887.210938 1097.261719 895.394531 1096.058594 903.625 1094.953125 C 913.214844 1093.648438 922.855469 1092.441406 932.445312 1091.335938 C 940.578125 1090.382812 948.761719 1089.277344 956.945312 1088.976562 C 967.585938 1088.625 978.128906 1087.671875 988.722656 1086.519531 C 994.398438 1085.914062 1000.121094 1085.914062 1005.84375 1085.464844 C 1017.542969 1084.558594 1029.339844 1084.960938 1041.136719 1084.15625 C 1060.566406 1082.851562 1080.046875 1084.710938 1099.527344 1083.003906 C 1117.046875 1081.496094 1134.769531 1082.652344 1152.441406 1081.847656 C 1177.894531 1080.695312 1203.398438 1081.296875 1228.902344 1081.648438 C 1254.207031 1082 1279.558594 1080.292969 1304.914062 1082.703125 C 1316.007812 1083.757812 1327.253906 1082 1338.402344 1083.808594 C 1344.976562 1084.859375 1351.804688 1084.207031 1358.53125 1084.960938 C 1366.464844 1085.863281 1374.449219 1086.265625 1382.378906 1087.523438 C 1390.261719 1088.777344 1398.292969 1089.78125 1406.226562 1089.933594 C 1418.476562 1090.183594 1430.675781 1090.9375 1442.875 1092.339844 C 1448.851562 1092.996094 1454.875 1093.042969 1460.699219 1094.851562 C 1462.15625 1095.304688 1463.511719 1094.953125 1463.210938 1092.792969 C 1462.757812 1089.933594 1462.105469 1087.070312 1462.054688 1084.207031 C 1461.855469 1077.730469 1461.855469 1071.253906 1462.054688 1064.777344 C 1462.15625 1061.214844 1461.351562 1058.300781 1458.742188 1055.792969 C 1456.734375 1053.785156 1456.933594 1051.726562 1459.644531 1050.121094 C 1461.804688 1048.863281 1461.953125 1047.308594 1462.003906 1045.25 C 1462.65625 1019.34375 1460.546875 993.335938 1463.210938 967.433594 C 1463.5625 964.167969 1463.410156 960.957031 1464.214844 957.542969 C 1466.121094 949.507812 1466.523438 941.125 1468.28125 933.042969 C 1468.730469 930.984375 1468.53125 930.332031 1467.074219 929.777344 C 1465.519531 929.175781 1463.8125 928.773438 1462.105469 928.523438 C 1455.777344 927.667969 1449.453125 926.867188 1443.078125 926.0625 C 1432.835938 924.808594 1422.644531 923.203125 1412.402344 922.550781 C 1403.816406 921.996094 1395.28125 920.941406 1386.699219 920.140625 C 1376.808594 919.183594 1366.816406 918.734375 1356.875 918.882812 C 1341.460938 919.136719 1326 917.476562 1310.636719 919.9375 C 1303.960938 921.042969 1297.183594 921.644531 1290.40625 922.398438 C 1282.671875 923.25 1274.890625 924.054688 1267.109375 924.859375 C 1263.042969 925.261719 1258.925781 925.511719 1254.910156 926.164062 C 1248.886719 927.167969 1242.960938 928.625 1236.9375 929.679688 C 1231.214844 930.683594 1225.238281 930.632812 1219.816406 932.339844 C 1213.691406 934.296875 1207.367188 934.449219 1201.242188 935.703125 C 1195.367188 936.90625 1189.34375 937.207031 1183.46875 938.261719 C 1175.789062 939.667969 1168.207031 941.476562 1160.574219 943.082031 C 1155.90625 944.035156 1151.136719 944.640625 1146.566406 945.996094 C 1143.707031 946.847656 1141.398438 947.550781 1139.039062 945.089844 C 1138.484375 944.488281 1137.179688 944.1875 1136.375 944.386719 C 1132.710938 945.292969 1129.148438 946.445312 1125.53125 947.449219 C 1115.039062 950.460938 1104.546875 953.523438 1094.054688 956.4375 C 1081.152344 959.953125 1068.199219 963.367188 1055.246094 966.777344 C 1046.859375 968.988281 1038.425781 971.148438 1030.09375 973.457031 C 1020.304688 976.167969 1010.5625 979.078125 1000.824219 981.941406 C 992.691406 984.351562 984.605469 986.761719 976.523438 989.222656 C 960.507812 994.039062 944.445312 998.660156 928.476562 1003.730469 C 910.957031 1009.253906 893.433594 1014.773438 876.113281 1020.949219 C 861.855469 1026.019531 847.800781 1031.746094 833.890625 1037.667969 C 818.480469 1044.246094 803.921875 1052.527344 789.613281 1061.214844 C 785.394531 1063.773438 780.976562 1066.035156 777.109375 1069.046875 C 772.792969 1072.410156 766.617188 1068.191406 762.953125 1073.0625 C 759.539062 1070.652344 755.019531 1072.863281 751.457031 1070 C 747.640625 1066.9375 743.324219 1064.378906 738.90625 1062.269531 C 733.882812 1059.859375 728.410156 1058.351562 723.292969 1056.042969 C 714.757812 1052.226562 706.371094 1048.0625 697.835938 1044.144531 C 684.582031 1038.070312 671.277344 1032.046875 657.976562 1026.121094 C 650.945312 1023.007812 643.917969 1020.046875 636.789062 1017.234375 C 628.605469 1014.023438 620.320312 1011.109375 612.085938 1008.046875 C 599.636719 1003.429688 587.234375 998.609375 574.734375 994.191406 C 562.734375 989.921875 550.636719 985.957031 538.488281 982.042969 C 525.632812 977.875 512.832031 973.507812 499.777344 969.992188 C 487.578125 966.730469 475.429688 963.265625 463.128906 960.351562 C 459.515625 959.5 454.847656 956.234375 451.230469 961.257812 C 450.929688 961.660156 449.675781 961.457031 448.921875 961.355469 C 444.703125 960.855469 440.4375 960.503906 436.269531 959.699219 C 427.484375 957.992188 418.800781 955.886719 410.0625 954.128906 C 404.792969 953.074219 399.417969 952.519531 394.097656 951.566406 C 385.8125 950.0625 377.582031 948.453125 369.347656 946.796875 C 363.925781 945.742188 358.554688 944.386719 353.132812 943.484375 C 347.054688 942.429688 340.929688 941.578125 334.804688 940.773438 C 330.539062 940.222656 326.171875 940.269531 321.953125 939.46875 C 315.425781 938.164062 308.949219 937.007812 302.324219 937.109375 C 301.519531 937.109375 300.667969 937.257812 299.914062 937.109375 C 293.238281 935.601562 286.507812 934.597656 279.679688 934.699219 C 278.074219 934.699219 276.316406 935.101562 274.863281 934.648438 C 267.03125 932.085938 258.746094 934.699219 250.964844 932.289062 C 226.664062 933.042969 202.316406 931.035156 178.015625 933.394531 C 166.519531 934.496094 154.871094 932.589844 143.324219 934.597656 C 137.902344 935.550781 132.332031 935.148438 126.808594 935.601562 C 116.414062 936.457031 106.023438 936.757812 95.679688 938.261719 C 88.550781 939.316406 81.273438 939.46875 74.242188 940.824219 C 64.050781 942.832031 53.960938 945.59375 43.871094 948.003906 C 39.148438 949.105469 39.050781 949.058594 39.101562 953.375 C 39.25 962.710938 39.199219 972.050781 40.105469 981.4375 C 41.507812 996.75 39.25 1012.265625 41.359375 1027.679688 C 42.515625 1036.113281 41.660156 1044.695312 42.414062 1053.28125 C 43.417969 1064.628906 43.46875 1076.125 45.023438 1087.472656 C 45.925781 1094.097656 46.128906 1100.875 46.230469 1107.605469 C 46.277344 1110.363281 47.234375 1111.117188 49.644531 1110.714844 C 50.597656 1110.566406 51.5 1110.316406 52.402344 1110.113281 C 59.28125 1108.707031 66.160156 1107.101562 73.136719 1105.945312 C 79.214844 1104.894531 85.4375 1104.492188 91.5625 1103.4375 C 99.847656 1102.03125 107.980469 1099.972656 116.265625 1098.71875 C 126.054688 1097.210938 135.894531 1096.15625 145.683594 1095.050781 C 153.816406 1094.148438 162 1092.996094 170.183594 1092.691406 C 179.625 1092.339844 188.960938 1091.289062 198.300781 1090.28125 C 204.976562 1089.582031 211.703125 1089.730469 218.429688 1089.179688 C 232.789062 1087.921875 247.199219 1089.378906 261.65625 1087.972656 C 277.972656 1086.417969 294.441406 1088.074219 310.910156 1086.820312 C 332.699219 1085.164062 354.636719 1087.070312 376.578125 1085.664062 C 391.285156 1084.710938 406.148438 1084.460938 421.007812 1086.417969 C 430.648438 1087.671875 440.4375 1086.46875 450.277344 1087.523438 C 460.820312 1088.625 471.464844 1088.726562 482.058594 1090.132812 C 488.882812 1091.035156 495.863281 1091.035156 502.792969 1091.4375 C 503.59375 1091.488281 504.449219 1091.289062 505.203125 1091.488281 C 512.28125 1093.042969 519.410156 1094 526.640625 1093.898438 C 527.644531 1093.898438 528.949219 1093.496094 529.652344 1093.949219 C 532.414062 1095.804688 535.425781 1094.800781 538.285156 1095.101562 C 541.148438 1095.453125 544.007812 1096.054688 546.871094 1096.257812 C 553.398438 1096.757812 559.976562 1096.507812 566.351562 1097.714844 C 570.667969 1098.515625 575.136719 1097.8125 579.152344 1098.96875 C 582.515625 1099.921875 585.78125 1099.621094 589.042969 1099.972656 C 592.507812 1100.324219 595.972656 1100.875 599.484375 1101.175781 C 605.160156 1101.679688 610.933594 1101.578125 616.554688 1102.53125 C 623.683594 1103.6875 630.863281 1104.238281 637.992188 1105.042969 C 643.917969 1105.695312 649.792969 1105.996094 655.714844 1106.097656 C 656.367188 1105.898438 657.019531 1106.648438 658.878906 1107.050781 M 751.757812 708.175781 C 751.757812 707.171875 752.007812 706.066406 751.707031 705.164062 C 749.496094 697.78125 747.238281 690.453125 744.878906 683.121094 C 738.453125 663.191406 731.875 643.257812 723.84375 623.878906 C 718.070312 609.875 712.898438 595.613281 706.574219 581.859375 C 700.800781 569.257812 694.070312 557.058594 687.34375 544.910156 C 680.367188 532.355469 672.484375 520.359375 665.65625 507.757812 C 656.265625 490.535156 644.972656 474.570312 634.078125 458.355469 C 627.300781 448.265625 619.617188 438.824219 612.289062 429.136719 C 603.300781 417.289062 594.363281 405.339844 585.226562 393.640625 C 579.554688 386.410156 573.53125 379.433594 567.65625 372.355469 C 561.378906 364.824219 555.105469 357.34375 548.777344 349.8125 C 547.875 348.757812 546.671875 347.90625 545.816406 346.800781 C 538.035156 336.40625 528.246094 328.125 518.105469 320.242188 C 515.996094 318.585938 515.042969 318.082031 514.992188 321.394531 C 514.992188 322.25 513.988281 323.054688 513.886719 323.957031 C 512.480469 333.597656 507.5625 341.980469 503.996094 350.816406 C 501.4375 357.242188 497.820312 363.265625 494.355469 369.292969 C 487.980469 380.4375 481.707031 391.683594 474.675781 402.425781 C 463.378906 419.699219 452.484375 437.21875 439.785156 453.535156 C 432.707031 462.671875 426.078125 472.210938 418.898438 481.296875 C 412.472656 489.433594 405.292969 497.0625 398.867188 505.195312 C 393.195312 512.425781 387.773438 519.957031 382.75 527.636719 C 375.421875 538.882812 368.746094 550.582031 361.414062 561.878906 C 352.226562 575.984375 343.792969 590.496094 336.210938 605.503906 C 329.734375 618.359375 323.8125 631.511719 317.738281 644.566406 C 317.285156 645.519531 317.484375 646.722656 317.433594 647.828125 C 318.539062 647.726562 319.644531 647.777344 320.699219 647.578125 C 325.316406 646.574219 329.988281 645.621094 334.605469 644.464844 C 340.078125 643.109375 345.648438 642.605469 351.171875 641.902344 C 358.101562 641 365.03125 639.59375 372.058594 639.695312 C 378.183594 639.796875 384.257812 640.398438 390.382812 640.851562 C 394.449219 641.152344 398.566406 641.550781 402.632812 642.105469 C 405.242188 642.457031 407.90625 643.007812 410.464844 643.710938 C 420.054688 646.320312 429.742188 648.683594 438.78125 653 C 448.570312 657.667969 458.609375 661.984375 468 667.457031 C 476.535156 672.480469 484.71875 678.203125 492.699219 684.277344 C 503.894531 692.8125 515.140625 701.246094 525.183594 711.136719 C 536.578125 722.332031 547.976562 733.527344 557.917969 746.078125 C 564.59375 754.5625 571.972656 762.496094 578.851562 770.828125 C 585.578125 778.914062 592.003906 787.246094 598.632812 795.378906 C 602.597656 800.25 606.765625 804.917969 610.582031 809.839844 C 618.011719 819.476562 625.191406 829.269531 632.519531 838.957031 C 640.203125 849.148438 648.386719 858.988281 655.566406 869.484375 C 667.363281 886.753906 678.757812 904.324219 689.804688 922.046875 C 697.988281 935.148438 705.066406 948.957031 713.25 962.058594 C 722.488281 976.769531 730.519531 992.082031 738.503906 1007.445312 C 743.773438 1017.585938 750.351562 1027.125 753.164062 1038.421875 C 753.3125 1039.074219 754.265625 1039.578125 754.820312 1040.128906 C 755.019531 1039.425781 755.472656 1038.773438 755.472656 1038.070312 C 754.871094 1021.652344 756.175781 1005.234375 754.519531 988.769531 C 753.0625 973.859375 755.121094 958.746094 753.164062 943.734375 C 752.207031 936.304688 753.164062 928.722656 752.109375 921.144531 C 750.703125 910.75 750.753906 900.058594 750.703125 889.515625 C 750.550781 861.199219 750.503906 832.882812 750.703125 804.515625 C 750.902344 774.144531 751.457031 743.769531 751.90625 713.34375 C 751.808594 711.941406 752.160156 710.382812 751.757812 708.175781 M 389.929688 503.039062 C 390.484375 502.082031 390.933594 500.980469 391.636719 500.125 C 400.171875 489.882812 408.957031 479.84375 417.292969 469.449219 C 422.964844 462.421875 428.238281 454.992188 433.609375 447.710938 C 438.128906 441.535156 442.445312 435.160156 447.015625 428.984375 C 449.675781 425.421875 449.625 424.515625 445.609375 422.308594 C 444.804688 421.855469 443.953125 421.453125 443.097656 421.101562 C 433.410156 416.636719 423.71875 412.21875 414.027344 407.75 C 405.542969 403.832031 397.058594 399.917969 388.523438 396.050781 C 384.257812 394.09375 380.34375 394.09375 376.476562 397.40625 C 373.914062 399.617188 370.652344 400.972656 367.890625 402.929688 C 359.910156 408.601562 351.925781 414.324219 344.144531 420.25 C 337.316406 425.472656 331.140625 431.546875 324.113281 436.414062 C 309.90625 446.257812 297.304688 457.953125 284.402344 469.25 C 272.453125 479.691406 261.355469 491.089844 250.058594 502.183594 C 246.09375 506.050781 242.78125 510.617188 238.8125 514.484375 C 225.359375 527.738281 211.652344 540.742188 198.199219 554.046875 C 192.828125 559.367188 187.855469 565.140625 182.683594 570.664062 C 176.8125 576.9375 170.988281 583.214844 165.0625 589.492188 C 156.78125 598.226562 148.445312 606.859375 140.210938 615.597656 C 135.140625 620.96875 130.070312 626.339844 125.199219 631.863281 C 117.269531 640.851562 109.335938 649.9375 101.605469 659.125 C 96.535156 665.097656 92.316406 671.675781 88.902344 678.703125 C 85.839844 684.929688 82.929688 691.207031 80.167969 697.53125 C 78.410156 701.648438 76.902344 705.914062 75.597656 710.183594 C 75.296875 711.136719 74.191406 713.546875 77.207031 713.695312 C 85.488281 714.097656 93.671875 715.707031 101.804688 717.261719 C 109.9375 718.816406 118.273438 719.269531 126.355469 721.128906 C 134.691406 723.035156 143.273438 722.785156 151.609375 724.589844 C 154.070312 725.144531 156.679688 725.042969 159.238281 725.195312 C 161.949219 725.34375 165.515625 726.648438 167.222656 725.394531 C 170.835938 722.785156 171.039062 727.90625 173.898438 727.300781 C 177.164062 726.648438 180.828125 727.753906 184.242188 728.40625 C 189.664062 729.460938 194.984375 730.917969 200.359375 731.871094 C 207.886719 733.277344 215.570312 734.082031 223.050781 735.738281 C 230.582031 737.34375 237.910156 740.253906 245.492188 741.511719 C 258.292969 743.570312 270.445312 747.886719 282.996094 750.796875 C 294.191406 753.410156 305.183594 756.773438 316.230469 759.886719 C 328.328125 763.347656 340.53125 766.664062 352.527344 770.480469 C 371.605469 776.605469 390.683594 782.628906 409.359375 790.058594 C 421.710938 794.980469 434.0625 799.796875 446.007812 805.671875 C 462.679688 813.855469 479.144531 822.441406 495.613281 830.925781 C 502.941406 834.691406 510.320312 838.40625 517.550781 842.472656 C 532.511719 850.855469 547.375 859.339844 562.234375 867.976562 C 569.261719 872.042969 576.242188 876.261719 583.019531 880.777344 C 594.765625 888.609375 606.464844 896.644531 617.960938 904.828125 C 623.984375 909.09375 629.710938 913.8125 635.332031 918.53125 C 641.859375 923.953125 648.132812 929.679688 654.511719 935.25 C 664.148438 943.683594 674.140625 951.820312 683.429688 960.65625 C 698.488281 975.011719 712.898438 990.074219 726.453125 1005.890625 C 726.957031 1006.492188 727.859375 1006.742188 728.5625 1007.144531 C 728.511719 1006.191406 728.863281 1004.933594 728.363281 1004.332031 C 724.644531 999.914062 722.589844 994.59375 719.777344 989.671875 C 712.847656 977.523438 705.570312 965.574219 698.390625 953.625 C 693.417969 945.34375 688.449219 937.058594 683.378906 928.925781 C 677.554688 919.585938 671.230469 910.550781 665.65625 901.0625 C 657.320312 886.851562 647.429688 873.75 637.890625 860.394531 C 632.621094 853.066406 627.347656 845.683594 621.878906 838.507812 C 615.5 830.171875 608.875 821.988281 602.296875 813.855469 C 598.082031 808.683594 593.660156 803.714844 589.445312 798.542969 C 583.371094 790.960938 577.496094 783.230469 571.371094 775.699219 C 567.054688 770.378906 562.535156 765.207031 558.066406 759.9375 C 551.089844 751.703125 544.3125 743.269531 536.980469 735.335938 C 529.300781 727.050781 521.015625 719.269531 513.03125 711.238281 C 512.027344 710.234375 511.125 709.128906 510.019531 708.273438 C 501.738281 701.949219 493.554688 695.421875 485.019531 689.449219 C 475.53125 682.769531 466.042969 675.941406 455.898438 670.371094 C 446.261719 665.046875 435.917969 660.933594 425.675781 656.964844 C 419.753906 654.65625 413.375 653.351562 407.101562 652.046875 C 399.769531 650.539062 392.339844 648.78125 384.960938 648.53125 C 374.417969 648.179688 363.824219 648.832031 353.332031 649.6875 C 347.105469 650.1875 340.929688 651.84375 334.804688 653.25 C 328.53125 654.707031 322.40625 656.515625 316.179688 658.019531 C 313.570312 658.671875 310.859375 659.023438 308.199219 659.226562 C 306.039062 659.375 304.933594 658.019531 305.136719 655.859375 C 305.234375 654.554688 305.335938 653.101562 305.839844 651.894531 C 311.058594 639.695312 316.230469 627.496094 321.753906 615.394531 C 324.363281 609.570312 327.625 604.050781 330.640625 598.425781 C 335.507812 589.289062 340.179688 580.050781 345.398438 571.164062 C 349.816406 563.636719 355.289062 556.707031 359.707031 549.125 C 368.695312 533.3125 378.734375 518.300781 389.929688 503.039062 M 742.671875 1049.96875 C 745.582031 1051.476562 748.542969 1053.03125 751.457031 1054.539062 C 749.949219 1051.222656 748.996094 1047.457031 746.835938 1044.597656 C 738.753906 1033.703125 730.519531 1022.910156 721.984375 1012.414062 C 717.066406 1006.390625 711.644531 1000.769531 706.121094 995.296875 C 690.960938 980.285156 675.597656 965.472656 660.285156 950.664062 C 656.871094 947.351562 653.304688 944.238281 649.640625 941.226562 C 641.207031 934.296875 632.773438 927.367188 624.1875 920.640625 C 616.605469 914.667969 609.023438 908.640625 601.042969 903.171875 C 590.25 895.691406 579.253906 888.460938 568.109375 881.632812 C 554.902344 873.550781 541.449219 865.917969 528.042969 858.238281 C 522.019531 854.773438 515.746094 851.808594 509.621094 848.496094 C 495.5625 840.867188 481.707031 832.832031 467.546875 825.503906 C 455.097656 819.078125 442.34375 813.152344 429.542969 807.378906 C 419.652344 802.960938 409.609375 798.792969 399.417969 795.128906 C 385.3125 790.058594 371.054688 785.441406 356.847656 780.71875 C 347.757812 777.707031 338.671875 774.644531 329.484375 772.035156 C 318.238281 768.820312 306.84375 766.109375 295.546875 763.097656 C 286.960938 760.839844 278.476562 758.429688 269.890625 756.21875 C 259.449219 753.558594 248.957031 750.949219 238.464844 748.539062 C 227.921875 746.128906 217.328125 743.921875 206.734375 741.609375 C 201.363281 740.457031 195.988281 739.199219 190.515625 738.246094 C 184.441406 737.191406 178.316406 736.441406 172.191406 735.535156 C 169.683594 735.183594 167.574219 735.835938 165.917969 737.996094 C 163.757812 740.808594 161.550781 743.570312 159.039062 746.078125 C 147.792969 757.425781 136.445312 768.722656 125.152344 780.015625 C 123.996094 781.171875 122.839844 782.277344 121.738281 783.480469 C 117.570312 788 113.605469 792.769531 109.234375 797.085938 C 102.859375 803.414062 96.132812 809.4375 89.65625 815.613281 C 89.203125 816.015625 89.152344 816.96875 89.152344 817.671875 C 89.152344 817.820312 90.15625 818.023438 90.710938 818.121094 C 96.234375 818.925781 101.855469 819.429688 107.277344 820.632812 C 115.410156 822.390625 123.394531 824.851562 131.476562 826.558594 C 143.976562 829.21875 156.578125 831.328125 169.128906 833.9375 C 179.925781 836.195312 190.617188 838.65625 201.3125 841.21875 C 209.945312 843.277344 218.582031 845.433594 227.167969 847.742188 C 238.464844 850.757812 249.707031 853.917969 260.953125 856.980469 C 272.050781 860.042969 283.144531 863.054688 294.191406 866.167969 C 301.621094 868.277344 308.949219 870.585938 316.332031 872.746094 C 327.175781 875.859375 338.121094 878.769531 348.914062 882.082031 C 357.699219 884.796875 366.285156 888.058594 374.96875 890.96875 C 390.632812 896.191406 406.296875 901.210938 421.960938 906.535156 C 432.40625 910.097656 442.644531 914.265625 453.1875 917.628906 C 469.605469 922.902344 485.371094 929.777344 501.386719 936.15625 C 508.867188 939.117188 516.144531 942.582031 523.578125 945.59375 C 536.578125 950.8125 549.734375 955.734375 562.6875 961.054688 C 574.082031 965.726562 585.378906 970.695312 596.726562 975.617188 C 610.984375 981.789062 625.242188 987.914062 639.398438 994.242188 C 646.074219 997.203125 652.300781 1001.371094 659.128906 1003.78125 C 670.925781 1007.898438 681.320312 1014.726562 692.316406 1020.398438 C 703.511719 1026.171875 714.304688 1032.796875 725.199219 1039.175781 C 730.773438 1042.386719 736.394531 1045.902344 742.671875 1049.96875 M 910.804688 974.109375 C 903.074219 979.382812 895.292969 984.601562 887.660156 990.023438 C 879.027344 996.148438 870.542969 1002.476562 862.007812 1008.699219 C 855.480469 1013.46875 848.953125 1018.238281 842.476562 1023.058594 C 841.976562 1023.460938 841.875 1024.414062 841.574219 1025.066406 C 842.125 1024.917969 842.726562 1024.765625 843.28125 1024.566406 C 858.140625 1018.890625 872.851562 1012.867188 887.8125 1007.546875 C 900.363281 1003.078125 913.117188 999.3125 925.867188 995.347656 C 940.375 990.828125 954.9375 986.410156 969.496094 981.992188 C 977.378906 979.582031 985.257812 976.972656 993.191406 974.761719 C 1004.4375 971.648438 1015.835938 968.9375 1027.128906 965.824219 C 1037.824219 962.863281 1048.417969 959.5 1059.109375 956.539062 C 1074.375 952.371094 1089.734375 948.453125 1105.046875 944.335938 C 1113.984375 941.976562 1122.871094 939.46875 1131.757812 937.058594 C 1140.84375 934.597656 1149.929688 932.039062 1159.117188 929.828125 C 1166.699219 927.972656 1174.480469 927.015625 1181.960938 924.808594 C 1195.265625 920.941406 1208.820312 918.332031 1222.277344 915.167969 C 1231.914062 912.910156 1241.65625 911.203125 1251.296875 908.945312 C 1261.335938 906.582031 1271.527344 905.226562 1281.617188 903.167969 C 1287.492188 901.964844 1293.515625 901.664062 1299.390625 900.609375 C 1307.675781 899.152344 1315.808594 897.246094 1324.09375 895.839844 C 1332.675781 894.382812 1341.261719 893.28125 1349.898438 892.175781 C 1357.226562 891.222656 1364.605469 890.367188 1371.9375 889.765625 C 1379.820312 889.164062 1387.800781 888.460938 1395.683594 888.609375 C 1410.292969 888.910156 1424.902344 887.507812 1439.511719 889.5625 C 1446.640625 890.570312 1454.074219 889.765625 1461.351562 889.714844 C 1461.90625 889.714844 1462.457031 889.515625 1463.007812 889.363281 C 1462.609375 888.8125 1462.257812 888.160156 1461.804688 887.65625 C 1459.695312 885.496094 1457.234375 883.589844 1455.429688 881.179688 C 1447.996094 871.140625 1439.363281 862.253906 1429.722656 854.320312 C 1427.3125 852.363281 1424.902344 850.355469 1422.445312 848.445312 C 1417.273438 844.378906 1412 840.414062 1406.878906 836.246094 C 1404.722656 834.488281 1403.113281 831.980469 1400.804688 830.523438 C 1399.699219 829.820312 1397.640625 827.210938 1395.886719 830.222656 C 1391.214844 830.222656 1386.296875 829.21875 1381.976562 830.472656 C 1375.402344 832.332031 1368.824219 830.875 1362.25 832.429688 C 1355.621094 833.988281 1348.390625 832.933594 1341.613281 834.089844 C 1337.296875 834.839844 1333.027344 834.691406 1328.761719 835.140625 C 1320.125 836.144531 1311.589844 837.652344 1302.957031 838.65625 C 1294.421875 839.660156 1285.835938 840.3125 1277.25 841.117188 C 1273.585938 841.46875 1269.871094 841.769531 1266.207031 842.371094 C 1259.226562 843.476562 1252.25 844.832031 1245.269531 845.9375 C 1239.347656 846.890625 1233.371094 847.34375 1227.5 848.445312 C 1220.019531 849.851562 1212.636719 851.609375 1205.207031 853.265625 C 1198.53125 854.722656 1191.804688 856.027344 1185.175781 857.683594 C 1176.941406 859.691406 1168.757812 861.953125 1160.574219 864.210938 C 1148.074219 867.675781 1135.472656 870.886719 1123.121094 874.855469 C 1095.109375 883.789062 1067.246094 892.976562 1039.933594 904.023438 C 1026.226562 909.597656 1012.519531 915.117188 999.21875 921.394531 C 983.601562 928.773438 968.59375 937.308594 953.378906 945.542969 C 947.554688 948.707031 941.882812 952.167969 936.410156 955.886719 C 927.925781 961.609375 919.691406 967.632812 910.804688 974.109375 M 107.679688 900.660156 C 113.402344 901.0625 119.074219 901.464844 124.800781 901.863281 C 130.925781 902.316406 137 902.117188 143.125 902.769531 C 153.066406 903.824219 163.054688 904.375 173.046875 905.328125 C 180.425781 906.03125 187.757812 906.785156 195.085938 907.839844 C 203.21875 908.992188 211.402344 909.546875 219.585938 910.347656 C 223.453125 910.75 227.367188 911 231.234375 911.605469 C 238.613281 912.707031 245.992188 914.164062 253.425781 915.167969 C 258.292969 915.820312 263.363281 915.46875 268.035156 916.625 C 271.597656 917.476562 275.164062 916.875 278.476562 917.78125 C 286.558594 919.988281 294.992188 919.488281 303.125 921.195312 C 307.894531 922.199219 312.917969 922.046875 317.785156 922.550781 C 321.050781 922.902344 324.3125 923.300781 327.578125 923.855469 C 334.203125 924.957031 340.78125 926.265625 347.355469 927.367188 C 352.878906 928.273438 358.453125 928.875 363.925781 929.878906 C 371.40625 931.285156 378.785156 933.042969 386.214844 934.648438 C 391.238281 935.753906 396.207031 936.90625 401.226562 937.960938 C 409.210938 939.71875 417.191406 941.476562 425.175781 943.082031 C 431.902344 944.4375 438.78125 945.34375 445.40625 947.050781 C 460.21875 950.8125 474.925781 954.878906 489.636719 958.949219 C 503.445312 962.761719 517.199219 966.578125 530.90625 970.644531 C 540.246094 973.40625 549.53125 976.519531 558.769531 979.582031 C 571.921875 983.949219 585.128906 988.21875 598.128906 992.984375 C 609.375 997.101562 620.21875 1002.324219 631.515625 1006.140625 C 646.980469 1011.410156 661.539062 1018.691406 676.449219 1025.21875 C 685.738281 1029.285156 694.523438 1034.304688 703.609375 1038.824219 C 705.265625 1039.625 707.226562 1039.878906 709.082031 1040.230469 C 709.433594 1040.277344 709.9375 1039.777344 710.386719 1039.578125 C 710.035156 1039.425781 709.683594 1039.273438 709.382812 1039.074219 C 705.417969 1036.964844 701.453125 1034.808594 697.433594 1032.699219 C 685.488281 1026.371094 673.589844 1019.996094 661.539062 1013.871094 C 653.859375 1009.957031 646.226562 1005.9375 638.195312 1002.777344 C 624.4375 997.355469 611.234375 990.726562 597.578125 985.003906 C 587.9375 980.988281 578.5 976.316406 568.8125 972.351562 C 557.0625 967.53125 545.113281 963.164062 533.316406 958.394531 C 526.1875 955.535156 519.257812 952.269531 512.128906 949.457031 C 497.019531 943.484375 481.855469 937.609375 466.59375 931.835938 C 453.640625 926.96875 440.636719 922.199219 427.535156 917.679688 C 403.988281 909.546875 380.390625 901.511719 356.746094 893.679688 C 344.796875 889.714844 332.746094 886.101562 320.699219 882.484375 C 310.808594 879.523438 300.816406 876.8125 290.828125 873.949219 C 280.886719 871.140625 270.945312 868.125 260.953125 865.515625 C 250.714844 862.855469 240.269531 860.898438 230.078125 857.933594 C 213.863281 853.265625 197.597656 849 181.027344 845.988281 C 169.832031 843.929688 158.738281 841.265625 147.59375 838.757812 C 137.449219 836.449219 127.359375 833.835938 117.21875 831.578125 C 115.5625 831.226562 112.800781 831.527344 111.996094 832.632812 C 105.269531 841.316406 99.042969 850.304688 92.417969 859.039062 C 85.640625 868.027344 78.5625 876.8125 71.632812 885.648438 C 69.222656 888.710938 66.664062 891.621094 64.554688 894.886719 C 63.25 896.894531 59.179688 898.601562 61.140625 900.960938 C 62.34375 902.46875 66.460938 901.914062 69.222656 901.8125 C 81.671875 901.511719 94.074219 901.0625 107.679688 900.660156 M 249.707031 1114.332031 C 250.363281 1113.929688 250.964844 1113.226562 251.617188 1113.175781 C 261.40625 1112.324219 271.144531 1111.417969 280.9375 1110.765625 C 287.0625 1110.367188 293.136719 1110.867188 299.261719 1109.664062 C 305.035156 1108.558594 311.007812 1109.511719 316.984375 1108.507812 C 323.761719 1107.402344 330.789062 1108.257812 337.71875 1107.203125 C 344.546875 1106.148438 351.472656 1107.253906 358.453125 1106.046875 C 365.832031 1104.792969 373.464844 1105.996094 380.996094 1104.792969 C 388.375 1103.585938 396.003906 1104.441406 403.535156 1103.6875 C 415.035156 1102.535156 426.628906 1102.785156 438.226562 1102.433594 C 462.476562 1101.679688 486.777344 1102.230469 511.074219 1102.183594 C 512.730469 1102.183594 514.390625 1101.730469 516.09375 1101.527344 C 514.289062 1100.925781 512.53125 1100.324219 510.722656 1099.824219 C 509.96875 1099.621094 509.117188 1099.824219 508.3125 1099.773438 C 503.394531 1099.472656 498.523438 1099.320312 493.605469 1098.867188 C 483.460938 1097.914062 473.222656 1097.363281 463.078125 1096.207031 C 457.808594 1095.605469 452.484375 1095.804688 447.164062 1095.203125 C 437.925781 1094.148438 428.488281 1094.050781 419.148438 1094 C 397.664062 1093.847656 376.226562 1093.042969 354.6875 1094.75 C 334.304688 1096.359375 313.769531 1094.148438 293.285156 1096.007812 C 276.769531 1097.511719 260.101562 1095.90625 243.433594 1097.109375 C 226.011719 1098.316406 208.441406 1097.511719 191.019531 1099.773438 C 183.789062 1100.726562 176.410156 1100.675781 169.078125 1101.078125 C 168.679688 1101.078125 168.277344 1101.027344 167.875 1101.078125 C 162.152344 1101.878906 156.429688 1102.835938 150.65625 1103.4375 C 145.382812 1104.039062 140.0625 1104.242188 134.789062 1104.691406 C 131.125 1104.992188 127.410156 1105.34375 123.746094 1105.898438 C 116.566406 1107 109.386719 1108.308594 102.207031 1109.511719 C 96.683594 1110.414062 91.160156 1111.066406 85.640625 1112.074219 C 80.015625 1113.078125 74.492188 1114.433594 68.871094 1115.585938 C 63.25 1116.742188 57.574219 1117.542969 52.050781 1118.949219 C 43.015625 1121.257812 37.792969 1117.445312 37.742188 1108.105469 C 37.742188 1104.894531 37.792969 1101.628906 37.695312 1098.417969 C 37.644531 1097.664062 36.992188 1096.910156 36.589844 1096.207031 C 36.085938 1096.859375 35.535156 1097.511719 35.132812 1098.265625 C 33.527344 1101.226562 32.019531 1104.242188 30.464844 1107.253906 C 24.992188 1117.746094 19.570312 1128.238281 14.046875 1138.679688 C 12.84375 1140.988281 13.394531 1142.546875 15.957031 1142.296875 C 21.730469 1141.691406 27.402344 1140.6875 33.175781 1139.9375 C 40.304688 1139.03125 47.484375 1138.53125 54.613281 1137.425781 C 63.902344 1136.019531 73.089844 1134.011719 82.375 1132.707031 C 90.109375 1131.601562 97.890625 1131.050781 105.621094 1130.195312 C 109.285156 1129.792969 113.101562 1129.84375 116.617188 1128.890625 C 122.289062 1127.285156 128.113281 1127.535156 133.886719 1126.683594 C 139.308594 1125.828125 144.882812 1125.980469 150.355469 1125.328125 C 158.988281 1124.273438 167.523438 1122.816406 176.160156 1121.761719 C 181.832031 1121.109375 187.554688 1120.910156 193.226562 1120.507812 C 193.832031 1120.457031 194.484375 1120.605469 194.984375 1120.40625 C 199.753906 1118.546875 204.875 1118.898438 209.796875 1118.148438 C 215.015625 1117.394531 220.441406 1117.695312 225.660156 1116.742188 C 233.34375 1115.285156 240.871094 1114.230469 249.707031 1114.332031 M 93.121094 929.777344 C 100.601562 928.273438 108.28125 929.074219 115.8125 927.519531 C 121.535156 926.3125 127.511719 927.519531 133.535156 926.363281 C 140.664062 925.007812 148.09375 925.210938 155.425781 924.957031 C 174.050781 924.257812 192.675781 925.914062 211.351562 923.90625 C 221.140625 922.851562 231.132812 923.601562 241.074219 923.753906 C 246.796875 923.855469 252.46875 924.558594 258.144531 924.859375 C 258.746094 924.910156 259.347656 924.40625 259.949219 924.15625 C 259.398438 924.003906 258.894531 923.804688 258.292969 923.703125 C 252.769531 922.902344 247.25 921.644531 241.726562 921.394531 C 234.496094 921.042969 227.417969 920.089844 220.289062 918.933594 C 211.152344 917.476562 201.914062 916.375 192.675781 915.269531 C 184.742188 914.316406 176.8125 913.261719 168.828125 912.910156 C 159.589844 912.507812 150.503906 911.453125 141.316406 910.5 C 133.03125 909.597656 124.699219 909.34375 116.363281 909.246094 C 101.753906 909.09375 87.195312 909.34375 72.585938 910.097656 C 65.507812 910.5 60.085938 911.304688 56.371094 917.929688 C 52.453125 924.859375 47.886719 931.386719 43.617188 938.113281 C 43.417969 938.464844 43.367188 938.964844 43.265625 939.367188 C 43.667969 939.417969 44.171875 939.617188 44.421875 939.46875 C 49.945312 936.105469 56.46875 936.253906 62.496094 934.847656 C 72.085938 932.488281 82.023438 931.386719 93.121094 929.777344 M 1344.828125 910.347656 C 1357.828125 910.75 1370.78125 911.152344 1383.785156 911.554688 C 1384.386719 911.554688 1385.039062 911.402344 1385.59375 911.554688 C 1392.421875 913.5625 1399.5 912.960938 1406.429688 913.914062 C 1411.898438 914.617188 1417.421875 914.566406 1422.894531 915.269531 C 1430.726562 916.273438 1438.457031 918.03125 1446.289062 918.734375 C 1452.464844 919.285156 1458.640625 919.738281 1464.714844 921.242188 C 1465.367188 921.394531 1466.121094 920.890625 1466.875 920.691406 C 1466.574219 919.988281 1466.421875 919.183594 1465.972656 918.632812 C 1464.917969 917.429688 1463.511719 916.472656 1462.605469 915.167969 C 1459.09375 910.199219 1455.78125 905.078125 1452.214844 900.058594 C 1451.613281 899.203125 1450.355469 898.402344 1449.351562 898.300781 C 1444.28125 897.746094 1439.160156 897.042969 1434.089844 897.09375 C 1415.0625 897.296875 1395.984375 896.140625 1376.957031 898.199219 C 1371.082031 898.851562 1365.058594 898.5 1359.285156 899.65625 C 1355.769531 900.359375 1352.308594 900.257812 1348.84375 900.710938 C 1341.8125 901.714844 1334.886719 903.167969 1327.90625 904.273438 C 1321.582031 905.226562 1315.207031 905.78125 1308.878906 906.785156 C 1301.902344 907.839844 1294.921875 909.246094 1287.945312 910.347656 C 1284.679688 910.902344 1281.265625 910.699219 1278.15625 911.65625 C 1268.265625 914.71875 1257.871094 915.070312 1247.882812 917.628906 C 1243.261719 918.785156 1238.542969 919.535156 1233.925781 920.589844 C 1233.019531 920.792969 1232.265625 921.394531 1231.414062 921.847656 C 1232.265625 922.097656 1233.171875 922.550781 1233.972656 922.5 C 1236.835938 922.199219 1239.796875 922.046875 1242.558594 921.242188 C 1249.238281 919.335938 1256.015625 918.179688 1262.890625 917.628906 C 1266.757812 917.328125 1270.625 916.875 1274.488281 916.324219 C 1279.058594 915.671875 1283.527344 914.667969 1288.09375 914.0625 C 1292.5625 913.460938 1297.082031 913.511719 1301.550781 912.757812 C 1309.480469 911.402344 1317.414062 910.5 1325.449219 910.398438 C 1331.523438 910.300781 1337.546875 910.347656 1344.828125 910.347656 M 1388.554688 1096.105469 C 1384.488281 1095.707031 1380.421875 1095.253906 1376.304688 1094.902344 C 1370.632812 1094.449219 1364.707031 1094.851562 1359.234375 1093.496094 C 1351.101562 1091.4375 1342.820312 1092.339844 1334.683594 1091.589844 C 1317.96875 1090.03125 1301.046875 1090.433594 1284.230469 1090.03125 C 1283.425781 1090.03125 1282.320312 1090.382812 1281.871094 1089.980469 C 1278.757812 1087.523438 1275.242188 1089.429688 1271.980469 1088.878906 C 1271.425781 1088.777344 1270.773438 1089.480469 1270.171875 1089.78125 C 1270.824219 1090.285156 1271.425781 1091.136719 1272.078125 1091.1875 C 1277.601562 1091.4375 1283.125 1091.941406 1288.597656 1092.191406 C 1301.25 1092.792969 1313.851562 1093.394531 1326.453125 1094.703125 C 1334.183594 1095.503906 1341.964844 1096.007812 1349.695312 1097.210938 C 1357.378906 1098.417969 1365.210938 1098.917969 1372.941406 1099.722656 C 1376.40625 1100.074219 1379.921875 1100.375 1383.382812 1100.976562 C 1389.761719 1102.082031 1396.085938 1103.585938 1402.511719 1104.542969 C 1410.042969 1105.597656 1417.722656 1105.746094 1425.15625 1107.253906 C 1428.667969 1107.957031 1432.234375 1107.605469 1435.597656 1108.355469 C 1444.332031 1110.265625 1453.21875 1110.867188 1462.054688 1111.871094 C 1463.460938 1112.023438 1464.917969 1111.671875 1466.273438 1111.972656 C 1473.550781 1113.527344 1480.882812 1114.433594 1488.363281 1114.332031 C 1491.273438 1114.28125 1489.113281 1113.175781 1488.714844 1112.421875 C 1486.957031 1109.109375 1485.097656 1105.847656 1483.542969 1102.433594 C 1479.878906 1094.449219 1474.355469 1087.320312 1472.699219 1078.382812 C 1472.597656 1077.78125 1471.59375 1077.332031 1471.042969 1076.777344 C 1470.839844 1077.332031 1470.539062 1077.832031 1470.539062 1078.382812 C 1470.488281 1079.789062 1470.4375 1081.246094 1470.539062 1082.652344 C 1470.890625 1087.320312 1471.441406 1092.039062 1471.695312 1096.710938 C 1471.84375 1099.167969 1468.933594 1103.335938 1466.875 1103.386719 C 1460.851562 1103.488281 1454.273438 1104.691406 1448.953125 1102.683594 C 1440.867188 1099.621094 1432.636719 1100.125 1424.5 1098.769531 C 1417.523438 1097.613281 1410.292969 1099.121094 1403.164062 1097.460938 C 1398.847656 1096.457031 1394.277344 1096.507812 1388.554688 1096.105469 M 942.988281 1100.976562 C 944.441406 1100.574219 945.847656 1099.972656 947.355469 1099.820312 C 952.226562 1099.320312 957.09375 1098.867188 962.015625 1098.617188 C 967.738281 1098.316406 973.359375 1098.417969 979.132812 1097.613281 C 986.011719 1096.660156 993.089844 1097.460938 1000.019531 1096.308594 C 1003.734375 1095.707031 1007.703125 1096.558594 1011.515625 1096.105469 C 1014.832031 1095.707031 1018.246094 1095.453125 1021.558594 1095.203125 C 1034.308594 1094.300781 1047.0625 1094.148438 1059.8125 1093.796875 C 1062.824219 1093.699219 1065.886719 1093.796875 1068.902344 1093.746094 C 1069.253906 1093.746094 1069.804688 1092.996094 1069.804688 1092.59375 C 1069.804688 1092.191406 1069.300781 1091.488281 1068.902344 1091.4375 C 1067.695312 1091.289062 1066.492188 1091.335938 1065.285156 1091.386719 C 1054.742188 1091.789062 1044.199219 1092.140625 1033.65625 1092.644531 C 1025.925781 1092.996094 1018.246094 1092.242188 1010.460938 1093.597656 C 1003.734375 1094.800781 996.65625 1093.597656 989.777344 1094.953125 C 985.210938 1095.855469 980.390625 1095.65625 975.722656 1095.957031 C 964.523438 1096.710938 953.328125 1097.363281 942.183594 1098.667969 C 933.851562 1099.621094 925.464844 1100.273438 917.132812 1101.179688 C 916.578125 1101.226562 916.128906 1101.980469 915.625 1102.433594 C 916.179688 1102.835938 916.832031 1103.585938 917.28125 1103.488281 C 925.367188 1101.730469 933.546875 1100.925781 942.988281 1100.976562 Z M 942.988281 1100.976562 " fill-opacity="1" fill-rule="nonzero"/></g><path fill="#fffdf4" d="M 834.292969 1058.453125 C 847.648438 1053.984375 860.351562 1049.515625 873.101562 1045.097656 C 884.449219 1041.183594 895.746094 1037.066406 907.191406 1033.652344 C 918.585938 1030.238281 930.136719 1027.476562 941.632812 1024.464844 C 953.679688 1021.300781 965.730469 1018.089844 977.828125 1015.125 C 985.761719 1013.167969 993.792969 1011.761719 1001.777344 1009.855469 C 1013.777344 1006.992188 1025.875 1004.785156 1037.773438 1001.519531 C 1046.410156 999.160156 1055.445312 998.257812 1064.230469 996.5 C 1073.320312 994.644531 1082.355469 992.332031 1091.492188 990.527344 C 1098.824219 989.070312 1106.253906 988.117188 1113.632812 986.8125 C 1122.066406 985.304688 1130.503906 983.449219 1138.9375 982.042969 C 1145.0625 980.988281 1151.238281 980.535156 1157.363281 979.53125 C 1163.789062 978.476562 1170.113281 977.019531 1176.488281 975.964844 C 1180.355469 975.3125 1184.273438 975.3125 1188.136719 974.660156 C 1195.917969 973.304688 1203.851562 973.253906 1211.582031 971.199219 C 1215.296875 970.191406 1219.265625 971.097656 1223.230469 970.09375 C 1228.101562 968.835938 1233.371094 969.140625 1238.441406 968.636719 C 1241.101562 968.386719 1243.765625 967.882812 1246.425781 967.433594 C 1248.886719 967.03125 1251.644531 968.585938 1253.855469 966.277344 C 1254.054688 966.078125 1254.660156 966.277344 1255.058594 966.226562 C 1261.386719 965.824219 1267.8125 966.027344 1273.9375 964.820312 C 1279.863281 963.71875 1286.035156 964.871094 1291.808594 962.5625 C 1292.160156 962.410156 1292.613281 962.5625 1293.015625 962.5625 C 1300.546875 962.160156 1308.078125 961.808594 1315.558594 961.308594 C 1319.019531 961.054688 1322.484375 960.503906 1326 960.152344 C 1329.261719 959.800781 1332.726562 961.003906 1335.839844 958.949219 C 1336.140625 958.746094 1336.644531 958.949219 1337.042969 958.898438 C 1344.777344 958.496094 1352.507812 958.292969 1360.1875 957.640625 C 1365.359375 957.191406 1370.429688 956.085938 1375.601562 955.28125 C 1376.605469 955.132812 1377.761719 954.929688 1378.613281 955.332031 C 1379.871094 955.933594 1380.824219 956.988281 1381.929688 957.894531 C 1380.921875 958.644531 1379.917969 959.902344 1378.816406 960.050781 C 1373.945312 960.652344 1369.023438 960.753906 1364.15625 961.40625 C 1354.214844 962.710938 1344.222656 963.265625 1334.234375 963.96875 C 1324.84375 964.621094 1315.507812 965.726562 1306.117188 966.378906 C 1296.730469 967.03125 1287.390625 968.136719 1278.003906 968.835938 C 1270.472656 969.390625 1262.84375 970.292969 1255.363281 971.296875 C 1246.574219 972.453125 1237.640625 972.601562 1228.902344 974.609375 C 1224.386719 975.664062 1219.515625 975.363281 1214.847656 975.96875 C 1209.875 976.621094 1205.007812 977.625 1200.035156 978.328125 C 1196.371094 978.878906 1192.65625 979.03125 1188.992188 979.582031 C 1181.410156 980.734375 1173.726562 981.339844 1166.199219 983.097656 C 1159.972656 984.5 1153.496094 984.652344 1147.21875 985.707031 C 1139.136719 987.0625 1131.105469 988.769531 1123.023438 990.226562 C 1119.808594 990.828125 1116.546875 991.128906 1113.332031 991.730469 C 1105.652344 993.1875 1097.96875 994.742188 1090.289062 996.25 C 1085.417969 997.203125 1080.5 998.007812 1075.679688 999.011719 C 1066.742188 1000.867188 1057.855469 1002.925781 1048.917969 1004.785156 C 1042.191406 1006.191406 1035.414062 1007.34375 1028.6875 1008.699219 C 1022.914062 1009.855469 1017.140625 1011.058594 1011.367188 1012.367188 C 1004.539062 1013.921875 997.710938 1015.527344 990.933594 1017.234375 C 976.625 1020.800781 962.417969 1024.765625 948.007812 1027.929688 C 935.253906 1030.691406 922.703125 1034.152344 910.253906 1037.96875 C 891.628906 1043.691406 873 1049.566406 854.675781 1056.246094 C 842.375 1060.710938 830.027344 1065.179688 817.675781 1069.5 C 810.648438 1071.957031 803.769531 1074.96875 796.941406 1077.984375 C 794.027344 1079.289062 791.46875 1081.347656 788.65625 1082.902344 C 787.855469 1083.355469 786.597656 1083.554688 785.796875 1083.253906 C 783.484375 1082.300781 785.695312 1080.394531 785.945312 1080.191406 C 787.902344 1078.433594 789.960938 1076.628906 792.324219 1075.574219 C 801.910156 1071.355469 811.601562 1067.390625 821.242188 1063.375 C 825.308594 1061.617188 829.523438 1060.109375 834.292969 1058.453125 Z M 834.292969 1058.453125 " fill-opacity="1" fill-rule="nonzero"/><path fill="#fffdf4" d="M 352.328125 1040.277344 C 373.964844 1040.277344 395 1040.128906 416.039062 1040.328125 C 426.378906 1040.429688 436.824219 1040.429688 447.0625 1041.734375 C 453.238281 1042.539062 459.3125 1042.289062 465.390625 1042.6875 C 476.382812 1043.441406 487.378906 1044.195312 498.375 1045.148438 C 506.558594 1045.851562 514.738281 1046.554688 522.875 1047.609375 C 531.007812 1048.664062 539.140625 1049.769531 547.375 1050.070312 C 553.949219 1050.371094 560.476562 1051.476562 567.003906 1052.429688 C 574.785156 1053.535156 582.566406 1054.9375 590.398438 1055.992188 C 595.066406 1056.644531 599.789062 1056.695312 604.457031 1057.296875 C 608.824219 1057.851562 613.140625 1058.703125 617.460938 1059.558594 C 620.472656 1060.160156 623.535156 1059.910156 626.648438 1060.664062 C 633.375 1062.269531 640.554688 1062.167969 647.429688 1063.421875 C 658.726562 1065.480469 670.273438 1066.035156 681.371094 1069.398438 C 682.074219 1069.597656 683.175781 1069.398438 683.578125 1069.851562 C 684.230469 1070.601562 684.933594 1072.007812 684.632812 1072.660156 C 684.28125 1073.414062 682.726562 1074.117188 681.871094 1074.015625 C 675.042969 1073.011719 668.265625 1071.808594 661.4375 1070.652344 C 652.199219 1069.046875 642.964844 1067.238281 633.726562 1065.832031 C 626.394531 1064.730469 619.015625 1064.328125 611.6875 1063.324219 C 604.253906 1062.320312 596.925781 1060.863281 589.496094 1059.757812 C 585.832031 1059.207031 582.164062 1058.90625 578.449219 1058.503906 C 569.863281 1057.648438 561.28125 1057.148438 552.746094 1055.992188 C 544.8125 1054.9375 536.832031 1054.1875 528.898438 1053.484375 C 521.367188 1052.78125 513.835938 1051.726562 506.253906 1051.074219 C 495.664062 1050.167969 485.070312 1049.464844 474.527344 1048.460938 C 469.203125 1047.960938 463.832031 1048.3125 458.609375 1047.457031 C 449.875 1046.054688 441.039062 1047.308594 432.453125 1046.054688 C 424.671875 1044.949219 416.992188 1045.300781 409.261719 1045.148438 C 384.558594 1044.597656 359.757812 1043.089844 335.15625 1044.195312 C 309.402344 1045.398438 283.648438 1043.691406 257.992188 1045.351562 C 244.386719 1046.203125 230.730469 1045.046875 217.226562 1046.554688 C 207.4375 1047.660156 197.597656 1046.40625 188.007812 1047.710938 C 180.628906 1048.714844 173.246094 1047.808594 166.066406 1048.914062 C 159.742188 1049.867188 153.316406 1049.117188 147.140625 1050.167969 C 142.21875 1051.023438 137.25 1050.421875 132.480469 1051.273438 C 123.292969 1052.878906 113.957031 1052.53125 104.816406 1054.636719 C 99.695312 1055.792969 94.273438 1055.542969 88.953125 1055.992188 C 87.046875 1056.144531 85.488281 1055.289062 85.539062 1053.632812 C 85.589844 1052.730469 87.546875 1051.324219 88.753906 1051.222656 C 94.625 1050.570312 100.550781 1050.519531 106.425781 1049.867188 C 115.261719 1048.863281 124.046875 1047.507812 132.832031 1046.304688 C 133.03125 1046.253906 133.234375 1046.304688 133.433594 1046.304688 C 140.765625 1045.902344 148.042969 1045.398438 155.375 1045.097656 C 166.320312 1044.648438 177.414062 1045.097656 188.207031 1043.644531 C 197.996094 1042.289062 207.839844 1043.84375 217.476562 1042.539062 C 232.890625 1040.480469 248.351562 1042.589844 263.714844 1041.332031 C 292.984375 1038.972656 322.355469 1041.03125 352.328125 1040.277344 Z M 352.328125 1040.277344 " fill-opacity="1" fill-rule="nonzero"/><path fill="#fffdf4" d="M 423.917969 1011.109375 C 414.332031 1010.308594 405.34375 1009.804688 396.40625 1008.601562 C 388.273438 1007.496094 379.992188 1007.246094 371.957031 1005.9375 C 364.980469 1004.785156 357.800781 1006.640625 351.074219 1003.878906 C 350.722656 1003.730469 350.269531 1003.878906 349.867188 1003.878906 C 340.730469 1003.480469 331.542969 1003.578125 322.457031 1002.523438 C 314.925781 1001.621094 307.242188 1002.425781 299.914062 1001.21875 C 292.933594 1000.066406 285.957031 1001.21875 279.128906 1000.164062 C 269.1875 998.609375 259.097656 1000.164062 249.308594 998.808594 C 238.714844 997.355469 228.171875 998.257812 217.628906 997.855469 C 202.617188 997.304688 187.605469 996.199219 172.644531 996.851562 C 156.628906 997.503906 140.613281 997.503906 124.597656 997.957031 C 115.007812 998.207031 105.421875 999.414062 95.882812 1000.316406 C 93.824219 1000.515625 91.765625 1001.21875 89.707031 1001.421875 C 89.054688 1001.472656 87.898438 1000.71875 87.796875 1000.164062 C 87.648438 999.511719 88.25 998.457031 88.800781 997.90625 C 89.457031 997.304688 90.410156 996.800781 91.3125 996.703125 C 95.582031 996.199219 99.847656 995.746094 104.164062 995.445312 C 111.695312 994.945312 119.328125 995.347656 126.707031 993.992188 C 134.085938 992.636719 141.367188 993.085938 148.695312 993.035156 C 176.007812 992.886719 203.320312 992.484375 230.632812 993.1875 C 242.78125 993.488281 255.03125 993.289062 267.128906 994.441406 C 275.113281 995.246094 283.09375 994.292969 290.925781 995.546875 C 298.105469 996.703125 305.285156 995.648438 312.265625 996.800781 C 318.238281 997.753906 324.113281 997.253906 329.988281 997.855469 C 341.183594 999.0625 352.378906 999.714844 363.574219 1000.417969 C 372.359375 1000.96875 381.042969 1002.375 389.878906 1002.777344 C 398.667969 1003.128906 407.453125 1003.980469 416.1875 1005.1875 C 423.519531 1006.191406 430.949219 1006.742188 438.226562 1007.746094 C 446.8125 1008.953125 455.597656 1008.902344 464.082031 1011.058594 C 468.199219 1012.113281 472.617188 1011.964844 476.886719 1012.367188 C 482.257812 1012.867188 487.578125 1013.417969 492.902344 1014.675781 C 496.265625 1015.476562 499.777344 1015.078125 503.34375 1015.828125 C 510.371094 1017.335938 517.652344 1017.4375 524.730469 1018.539062 C 533.617188 1019.894531 542.402344 1021.855469 551.238281 1023.308594 C 557.566406 1024.363281 563.941406 1024.765625 570.265625 1025.820312 C 578.351562 1027.175781 586.382812 1028.933594 594.414062 1030.4375 C 597.425781 1030.992188 600.488281 1031.292969 603.550781 1031.84375 C 609.929688 1033 616.304688 1034.355469 622.679688 1035.460938 C 628.402344 1036.414062 634.175781 1037.015625 639.851562 1037.96875 C 644.71875 1038.773438 649.589844 1039.777344 654.460938 1040.78125 C 657.625 1041.433594 660.785156 1042.136719 663.949219 1042.789062 C 664.550781 1042.890625 665.355469 1042.539062 665.757812 1042.839844 C 666.960938 1043.742188 669.070312 1045 668.96875 1045.902344 C 668.769531 1047.457031 666.859375 1047.960938 665.054688 1047.660156 C 659.730469 1046.753906 654.410156 1046.050781 649.136719 1045.046875 C 643.515625 1043.996094 637.992188 1042.6875 632.371094 1041.585938 C 624.136719 1039.925781 615.953125 1038.222656 607.667969 1036.765625 C 601.996094 1035.761719 596.171875 1035.257812 590.5 1034.253906 C 582.066406 1032.796875 573.628906 1030.941406 565.195312 1029.484375 C 559.121094 1028.429688 552.894531 1027.980469 546.769531 1026.976562 C 537.535156 1025.46875 528.296875 1023.710938 519.058594 1022.15625 C 515.59375 1021.601562 512.128906 1021.300781 508.613281 1020.898438 C 500.882812 1020.097656 493.050781 1019.59375 485.371094 1018.390625 C 475.378906 1016.832031 465.390625 1015.425781 455.296875 1014.773438 C 447.917969 1014.273438 440.585938 1013.269531 433.257812 1012.414062 C 430.296875 1012.015625 427.433594 1011.511719 423.917969 1011.109375 Z M 423.917969 1011.109375 " fill-opacity="1" fill-rule="nonzero"/><path fill="#fffdf4" d="M 113.152344 975.917969 C 102.207031 976.320312 91.765625 976.167969 81.523438 977.371094 C 76.199219 978.023438 70.929688 978.125 65.609375 978.328125 C 64.402344 978.375 63.296875 978.527344 63.296875 976.570312 C 63.296875 974.8125 64.101562 974.710938 65.457031 974.660156 C 71.582031 974.308594 77.808594 974.5625 83.730469 973.304688 C 91.511719 971.699219 99.246094 973.105469 106.925781 972.152344 C 126.757812 969.742188 146.636719 971.398438 166.519531 971.097656 C 186.550781 970.746094 206.582031 970.34375 226.566406 971.296875 C 238.160156 971.851562 249.757812 971.398438 261.257812 972.554688 C 267.78125 973.207031 274.308594 973.054688 280.785156 973.507812 C 291.78125 974.261719 302.777344 975.011719 313.769531 975.96875 C 321.753906 976.621094 329.683594 977.421875 337.617188 978.425781 C 345.851562 979.480469 353.984375 980.886719 362.21875 981.992188 C 366.886719 982.59375 371.605469 982.695312 376.273438 983.296875 C 380.644531 983.847656 384.910156 984.851562 389.277344 985.605469 C 392.542969 986.160156 395.804688 986.511719 399.066406 986.910156 C 406.199219 987.765625 413.375 988.316406 420.503906 989.421875 C 429.792969 990.828125 438.980469 992.734375 448.21875 994.191406 C 454.945312 995.246094 461.722656 995.699219 468.453125 996.703125 C 474.476562 997.65625 480.398438 999.109375 486.425781 1000.164062 C 489.839844 1000.769531 493.351562 1000.917969 496.816406 1001.519531 C 503.042969 1002.574219 509.21875 1003.832031 515.441406 1004.886719 C 518.855469 1005.488281 522.320312 1005.738281 525.785156 1006.390625 C 533.667969 1007.847656 541.5 1009.453125 549.382812 1010.910156 C 554.652344 1011.914062 559.976562 1012.667969 565.246094 1013.671875 C 572.527344 1015.078125 579.753906 1016.785156 587.035156 1018.1875 C 592.507812 1019.242188 598.03125 1020.046875 603.503906 1020.949219 C 604.105469 1021.050781 604.859375 1020.75 605.308594 1021 C 606.816406 1021.855469 608.171875 1022.859375 609.628906 1023.8125 C 608.222656 1024.464844 606.765625 1025.769531 605.359375 1025.71875 C 601.695312 1025.570312 598.03125 1025.015625 594.414062 1024.363281 C 588.792969 1023.359375 583.21875 1022.105469 577.648438 1020.949219 C 567.957031 1018.941406 558.269531 1016.882812 548.578125 1014.976562 C 543.308594 1013.972656 537.933594 1013.371094 532.613281 1012.414062 C 524.582031 1010.910156 516.546875 1009.152344 508.464844 1007.695312 C 502.992188 1006.691406 497.417969 1006.039062 491.898438 1005.136719 C 484.71875 1003.980469 477.539062 1002.625 470.359375 1001.519531 C 464.035156 1000.566406 457.65625 1000.015625 451.332031 999.011719 C 444.703125 997.957031 438.179688 996.550781 431.601562 995.445312 C 428.335938 994.894531 425.074219 994.59375 421.8125 994.191406 C 411.820312 992.984375 401.777344 991.78125 391.789062 990.527344 C 382.601562 989.371094 373.363281 988.316406 364.175781 986.8125 C 357.246094 985.65625 350.320312 985.054688 343.339844 984.300781 C 335.609375 983.449219 327.828125 982.59375 320.097656 981.890625 C 310.105469 980.9375 300.113281 980.285156 290.175781 979.332031 C 284.449219 978.777344 278.675781 979.28125 273.054688 978.328125 C 263.113281 976.667969 253.023438 978.328125 243.234375 976.972656 C 232.839844 975.566406 222.496094 976.117188 212.15625 976.066406 C 179.273438 975.765625 146.488281 975.917969 113.152344 975.917969 Z M 113.152344 975.917969 " fill-opacity="1" fill-rule="nonzero"/><path fill="#fffdf4" d="M 1147.570312 1024.464844 C 1160.574219 1023.109375 1172.976562 1022.707031 1185.375 1021.753906 C 1191.902344 1021.25 1198.480469 1021.753906 1204.90625 1020.75 C 1214.847656 1019.191406 1224.9375 1020.75 1234.726562 1019.394531 C 1245.320312 1017.9375 1255.863281 1018.539062 1266.40625 1018.492188 C 1305.265625 1018.289062 1344.074219 1018.441406 1382.933594 1018.390625 C 1389.308594 1018.390625 1395.582031 1017.488281 1401.609375 1015.175781 C 1402.5625 1014.824219 1403.765625 1015.226562 1404.871094 1015.328125 C 1404.621094 1016.433594 1404.671875 1017.6875 1404.117188 1018.589844 C 1402.058594 1021.804688 1398.292969 1021.652344 1395.28125 1021.953125 C 1374.449219 1024.164062 1353.511719 1024.214844 1332.726562 1022.957031 C 1316.058594 1021.953125 1299.390625 1021.703125 1282.875 1022.40625 C 1266.65625 1023.109375 1250.390625 1022.304688 1234.226562 1023.613281 C 1225.441406 1024.3125 1216.652344 1023.511719 1208.019531 1024.714844 C 1200.839844 1025.71875 1193.660156 1024.816406 1186.679688 1025.972656 C 1180.507812 1026.976562 1174.382812 1026.324219 1168.355469 1027.074219 C 1158.617188 1028.230469 1148.828125 1029.082031 1139.039062 1029.484375 C 1130.855469 1029.835938 1122.71875 1030.992188 1114.539062 1031.84375 C 1107.15625 1032.597656 1099.828125 1033.453125 1092.496094 1034.253906 C 1085.769531 1035.007812 1078.992188 1035.710938 1072.265625 1036.714844 C 1065.4375 1037.71875 1058.710938 1039.175781 1051.933594 1040.28125 C 1048.46875 1040.832031 1045.003906 1041.03125 1041.539062 1041.535156 C 1034.109375 1042.589844 1026.628906 1042.941406 1019.347656 1045.046875 C 1015.835938 1046.054688 1012.019531 1045.800781 1008.355469 1046.40625 C 1001.925781 1047.410156 995.5 1048.3125 989.175781 1049.867188 C 983.804688 1051.222656 978.128906 1051.425781 972.609375 1052.480469 C 964.777344 1053.933594 956.996094 1056.195312 949.113281 1057.097656 C 943.890625 1057.699219 938.820312 1058.703125 933.75 1059.757812 C 922.605469 1062.117188 911.507812 1064.578125 900.414062 1067.1875 C 896.800781 1068.042969 893.335938 1069.597656 889.71875 1070.554688 C 888.816406 1070.804688 887.660156 1070.050781 886.605469 1069.800781 C 887.261719 1068.847656 887.660156 1067.589844 888.515625 1066.988281 C 890.070312 1065.984375 891.777344 1065.03125 893.585938 1064.628906 C 903.675781 1062.117188 913.816406 1059.757812 923.910156 1057.296875 C 930.335938 1055.742188 936.660156 1053.785156 943.136719 1052.53125 C 951.070312 1051.023438 959.152344 1050.167969 967.085938 1048.765625 C 972.507812 1047.808594 977.777344 1046.152344 983.203125 1045.25 C 989.476562 1044.195312 995.851562 1043.59375 1002.230469 1042.738281 C 1007.953125 1041.988281 1013.726562 1041.234375 1019.398438 1040.28125 C 1023.164062 1039.675781 1026.777344 1038.421875 1030.542969 1037.917969 C 1040.535156 1036.5625 1050.578125 1035.660156 1060.566406 1034.15625 C 1070.355469 1032.699219 1080.097656 1031.042969 1089.988281 1030.390625 C 1096.914062 1029.886719 1103.84375 1028.683594 1110.820312 1028.03125 C 1119.609375 1027.175781 1128.292969 1025.820312 1137.128906 1025.71875 C 1140.394531 1025.570312 1143.65625 1024.867188 1147.570312 1024.464844 Z M 1147.570312 1024.464844 " fill-opacity="1" fill-rule="nonzero"/><path fill="#fffdf4" d="M 1049.523438 1063.625 C 1048.519531 1064.125 1047.765625 1064.476562 1047.0625 1064.527344 C 1038.527344 1064.980469 1029.992188 1065.179688 1021.457031 1065.832031 C 1013.074219 1066.4375 1004.6875 1067.1875 996.355469 1068.292969 C 990.128906 1069.148438 984.003906 1070.703125 977.828125 1071.808594 C 976.875 1071.957031 975.570312 1071.355469 974.714844 1070.703125 C 973.664062 1069.898438 973.210938 1068.746094 975.167969 1068.242188 C 978.082031 1067.441406 980.941406 1066.386719 983.902344 1065.882812 C 987.519531 1065.230469 991.335938 1065.332031 994.898438 1064.527344 C 1004.035156 1062.570312 1013.476562 1063.324219 1022.5625 1060.964844 C 1022.964844 1060.863281 1023.363281 1060.964844 1023.765625 1060.964844 C 1031.699219 1060.5625 1039.632812 1060.460938 1047.511719 1059.707031 C 1061.519531 1058.351562 1075.578125 1057.902344 1089.585938 1056.996094 C 1096.113281 1056.59375 1102.6875 1056.847656 1109.113281 1056.042969 C 1119.859375 1054.6875 1130.753906 1055.894531 1141.347656 1054.636719 C 1151.386719 1053.433594 1161.328125 1054.539062 1171.21875 1053.632812 C 1193.109375 1051.726562 1215.046875 1053.632812 1236.886719 1052.175781 C 1251.546875 1051.171875 1266.15625 1050.871094 1280.714844 1051.523438 C 1304.863281 1052.578125 1328.960938 1051.625 1353.058594 1052.832031 C 1364.054688 1053.382812 1375.101562 1052.527344 1385.945312 1053.933594 C 1395.734375 1055.191406 1405.472656 1054.4375 1415.214844 1054.988281 C 1416.621094 1055.089844 1418.023438 1055.992188 1419.378906 1056.546875 C 1417.925781 1057.601562 1416.417969 1059.65625 1415.011719 1059.609375 C 1407.683594 1059.308594 1400.253906 1061.0625 1393.023438 1058.605469 C 1391.566406 1058.101562 1389.808594 1058.554688 1388.203125 1058.554688 C 1364.910156 1058.152344 1341.5625 1058.605469 1318.316406 1057.148438 C 1287.292969 1055.238281 1256.316406 1055.894531 1225.339844 1056.546875 C 1208.320312 1056.898438 1191.199219 1056.042969 1174.28125 1057.601562 C 1163.285156 1058.605469 1152.242188 1057.398438 1141.394531 1058.753906 C 1132.207031 1059.910156 1122.972656 1058.652344 1113.984375 1060.007812 C 1106.003906 1061.214844 1098.019531 1059.960938 1090.1875 1061.164062 C 1083.007812 1062.269531 1075.828125 1061.265625 1068.851562 1062.417969 C 1062.425781 1063.375 1056.148438 1063.023438 1049.523438 1063.625 Z M 1049.523438 1063.625 " fill-opacity="1" fill-rule="nonzero"/><path fill="#fffdf4" d="M 1254.40625 990.476562 C 1251.949219 990.878906 1250.089844 991.53125 1248.234375 991.628906 C 1240.449219 992.03125 1232.667969 992.636719 1224.9375 994.039062 C 1220.117188 994.894531 1215.097656 994.492188 1210.328125 995.445312 C 1203.75 996.800781 1196.972656 996.601562 1190.546875 998.859375 C 1187.335938 1000.015625 1183.617188 999.714844 1180.15625 1000.214844 C 1171.46875 1001.472656 1162.785156 1002.675781 1154.199219 1004.933594 C 1148.828125 1006.339844 1143.105469 1006.441406 1137.632812 1007.546875 C 1127.742188 1009.554688 1117.699219 1010.757812 1107.910156 1013.417969 C 1100.929688 1015.328125 1093.550781 1015.730469 1086.421875 1017.234375 C 1076.230469 1019.394531 1066.140625 1022.003906 1056 1024.3125 C 1053.386719 1024.917969 1050.726562 1025.316406 1048.066406 1025.621094 C 1047.0625 1025.71875 1045.503906 1026.273438 1045.554688 1024.164062 C 1045.554688 1022.808594 1045.707031 1022.253906 1047.414062 1021.90625 C 1051.429688 1021.050781 1055.296875 1019.292969 1059.3125 1018.441406 C 1071.210938 1015.878906 1083.210938 1013.621094 1095.109375 1011.058594 C 1103.992188 1009.152344 1112.828125 1006.84375 1121.765625 1005.085938 C 1127.640625 1003.929688 1133.664062 1003.578125 1139.539062 1002.523438 C 1144.960938 1001.570312 1150.234375 999.964844 1155.65625 999.011719 C 1161.328125 997.957031 1167.203125 997.707031 1172.824219 996.449219 C 1179.152344 994.996094 1185.777344 995.246094 1192.003906 993.035156 C 1194.816406 992.03125 1198.078125 992.785156 1201.242188 991.882812 C 1205.507812 990.675781 1210.175781 991.027344 1214.644531 990.425781 C 1219.765625 989.773438 1224.886719 988.769531 1230.058594 988.066406 C 1234.125 987.515625 1238.191406 987.113281 1242.308594 986.863281 C 1250.441406 986.359375 1258.625 986.558594 1266.65625 985.457031 C 1273.585938 984.5 1280.664062 985.355469 1287.390625 984.199219 C 1295.175781 982.84375 1302.90625 983.898438 1310.585938 983.195312 C 1327.808594 981.640625 1345.027344 982.292969 1362.296875 981.890625 C 1368.671875 981.742188 1375 980.335938 1381.324219 979.632812 C 1382.328125 979.53125 1383.382812 980.183594 1384.4375 980.433594 C 1384.085938 981.488281 1384.035156 983.046875 1383.332031 983.546875 C 1381.828125 984.550781 1379.917969 985.457031 1378.164062 985.554688 C 1366.214844 986.109375 1354.214844 986.511719 1342.265625 986.8125 C 1336.191406 986.960938 1330.117188 986.710938 1324.042969 986.863281 C 1312.292969 987.164062 1300.445312 987.011719 1288.746094 988.316406 C 1282.171875 989.070312 1275.644531 988.417969 1269.21875 989.472656 C 1264.347656 990.226562 1259.730469 990.425781 1254.40625 990.476562 Z M 1254.40625 990.476562 " fill-opacity="1" fill-rule="nonzero"/><path fill="#fffdf4" d="M 257.890625 1016.28125 C 278.625 1015.980469 299.058594 1015.980469 319.492188 1015.980469 C 321.601562 1015.980469 325.066406 1015.226562 325.167969 1017.6875 C 325.265625 1020.296875 321.851562 1019.542969 319.792969 1019.59375 C 307.847656 1019.996094 295.847656 1020.550781 283.898438 1020.800781 C 275.011719 1021 266.074219 1020.296875 257.1875 1020.949219 C 239.367188 1022.207031 221.445312 1021.25 203.671875 1022.355469 C 194.28125 1022.957031 184.894531 1022.207031 175.65625 1023.460938 C 168.878906 1024.363281 162.152344 1023.863281 155.523438 1024.566406 C 146.539062 1025.519531 137.601562 1026.472656 128.613281 1027.023438 C 120.382812 1027.578125 112.199219 1029.386719 104.015625 1030.488281 C 102.007812 1030.742188 99.949219 1030.640625 97.941406 1030.4375 C 97.289062 1030.390625 96.332031 1029.585938 96.132812 1028.933594 C 95.730469 1027.628906 96.234375 1026.976562 97.941406 1026.773438 C 102.710938 1026.222656 107.378906 1025.015625 112.097656 1024.464844 C 121.035156 1023.460938 130.121094 1023.359375 138.957031 1021.753906 C 143.726562 1020.898438 148.445312 1021.503906 153.015625 1020.648438 C 160.34375 1019.242188 167.773438 1020.5 174.953125 1019.34375 C 183.339844 1017.9375 191.671875 1019.09375 199.957031 1018.289062 C 218.582031 1016.53125 237.257812 1017.285156 255.882812 1017.085938 C 256.585938 1017.183594 257.089844 1016.785156 257.890625 1016.28125 Z M 257.890625 1016.28125 " fill-opacity="1" fill-rule="nonzero"/><path fill="#fffdf4" d="M 1267.761719 945.542969 C 1276.699219 945.140625 1285.132812 945.492188 1293.316406 944.136719 C 1301.699219 942.730469 1310.035156 943.9375 1318.320312 943.082031 C 1331.875 941.675781 1345.53125 941.226562 1359.035156 942.179688 C 1372.238281 943.132812 1385.390625 942.980469 1398.546875 943.082031 C 1401.003906 943.082031 1403.464844 942.027344 1405.925781 942.027344 C 1407.230469 942.027344 1408.535156 943.285156 1409.792969 943.9375 C 1408.738281 944.890625 1407.785156 946.546875 1406.679688 946.648438 C 1400 947.300781 1393.171875 948.503906 1386.597656 947.800781 C 1365.5625 945.59375 1344.476562 946.847656 1323.390625 947.050781 C 1313.699219 947.148438 1303.859375 947.199219 1294.21875 948.253906 C 1288.496094 948.90625 1282.722656 948.304688 1277.152344 949.308594 C 1267.613281 951.015625 1257.769531 950.3125 1248.28125 952.722656 C 1244.164062 953.777344 1239.699219 953.425781 1235.480469 954.078125 C 1229.457031 955.03125 1223.53125 956.488281 1217.507812 957.492188 C 1207.566406 959.097656 1197.878906 961.40625 1188.339844 964.722656 C 1187.585938 964.972656 1186.429688 963.917969 1185.425781 963.464844 C 1185.980469 962.363281 1186.230469 960.554688 1187.082031 960.253906 C 1191.148438 958.796875 1195.265625 957.492188 1199.484375 956.539062 C 1207.066406 954.78125 1214.695312 953.175781 1222.328125 951.667969 C 1228.851562 950.363281 1235.429688 949.105469 1242.058594 948.054688 C 1245.871094 947.449219 1249.789062 947.199219 1253.65625 946.796875 C 1258.171875 946.347656 1262.640625 945.945312 1267.761719 945.542969 Z M 1267.761719 945.542969 " fill-opacity="1" fill-rule="nonzero"/><path fill="#fffdf4" d="M 132.53125 956.488281 C 146.941406 956.085938 160.796875 956.488281 174.503906 955.03125 C 185.496094 953.828125 196.542969 955.230469 207.386719 953.875 C 217.578125 952.570312 227.820312 953.925781 237.808594 952.621094 C 245.59375 951.566406 253.273438 952.019531 261.003906 951.71875 C 261.859375 951.667969 262.761719 952.570312 263.664062 953.023438 C 262.863281 953.777344 262.160156 955.03125 261.207031 955.230469 C 257.992188 955.886719 254.679688 956.386719 251.414062 956.488281 C 236.605469 956.988281 221.746094 956.488281 207.035156 958.042969 C 196.191406 959.148438 185.398438 957.84375 174.753906 959.148438 C 163.558594 960.554688 152.3125 959.199219 141.265625 960.453125 C 134.488281 961.207031 127.761719 960.753906 121.132812 961.457031 C 109.535156 962.710938 97.941406 963.367188 86.34375 964.019531 C 77.355469 964.519531 68.46875 966.328125 59.433594 966.277344 C 58.832031 966.277344 58.027344 966.175781 57.726562 966.527344 C 55.617188 968.738281 54.0625 966.929688 53.808594 965.425781 C 53.507812 963.414062 55.316406 962.761719 57.375 962.613281 C 67.164062 961.910156 77.003906 961.355469 86.695312 960.152344 C 96.886719 958.898438 107.027344 957.894531 117.269531 957.742188 C 122.1875 957.59375 127.058594 956.890625 132.53125 956.488281 Z M 132.53125 956.488281 " fill-opacity="1" fill-rule="nonzero"/></svg>